solid GlassHolderNew
facet normal 0.991444861373811 -0.13052619222004647 0.0
  outer loop
    vertex -284.8669297740521 -55.22990259846711 0.0
    vertex -284.9434868793063 -55.61478115711451 5.0
    vertex -284.9434868793063 -55.61478115711451 0.0
  endloop
endfacet
facet normal 0.9659258262890716 -0.2588190451025089 0.0
  outer loop
    vertex -284.9434868793063 -55.61478115711451 5.0
    vertex -284.8669297740521 -55.22990259846711 0.0
    vertex -284.8669297740521 -55.22990259846711 5.0
  endloop
endfacet
facet normal 0.7071067811865562 -0.7071067811865389 0.0
  outer loop
    vertex -285.7199440146138 -56.95964436536659 5.0
    vertex -286.01498007114736 -57.218384042680654 0.0
    vertex -285.7199440146138 -56.95964436536659 0.0
  endloop
endfacet
facet normal 0.6087614290087285 -0.7933533402912291 0.0
  outer loop
    vertex -286.01498007114736 -57.218384042680654 0.0
    vertex -285.7199440146138 -56.95964436536659 5.0
    vertex -286.01498007114736 -57.218384042680654 5.0
  endloop
endfacet
facet normal 0.6087614290087285 -0.7933533402912291 0.0
  outer loop
    vertex -286.01498007114736 -57.218384042680654 5.0
    vertex -286.3412643581735 -57.43640023316026 0.0
    vertex -286.01498007114736 -57.218384042680654 0.0
  endloop
endfacet
facet normal 0.500000000000009 -0.8660254037844335 0.0
  outer loop
    vertex -286.3412643581735 -57.43640023316026 0.0
    vertex -286.01498007114736 -57.218384042680654 5.0
    vertex -286.3412643581735 -57.43640023316026 5.0
  endloop
endfacet
facet normal 0.8660254037844287 -0.5000000000000174 0.0
  outer loop
    vertex -285.2431881468202 -56.33832402180695 0.0
    vertex -285.4612043372998 -56.6646083088331 5.0
    vertex -285.4612043372998 -56.6646083088331 0.0
  endloop
endfacet
facet normal 0.7933533402912462 -0.6087614290087063 0.0
  outer loop
    vertex -285.4612043372998 -56.6646083088331 5.0
    vertex -285.2431881468202 -56.33832402180695 0.0
    vertex -285.2431881468202 -56.33832402180695 5.0
  endloop
endfacet
facet normal 0.500000000000009 -0.8660254037844335 0.0
  outer loop
    vertex -286.3412643581735 -57.43640023316026 5.0
    vertex -286.6932140610782 -57.60996261934081 0.0
    vertex -286.3412643581735 -57.43640023316026 0.0
  endloop
endfacet
facet normal 0.38268343236508157 -0.9238795325112903 0.0
  outer loop
    vertex -286.6932140610782 -57.60996261934081 0.0
    vertex -286.3412643581735 -57.43640023316026 5.0
    vertex -286.6932140610782 -57.60996261934081 5.0
  endloop
endfacet
facet normal 0.9978589232386025 -0.06540312923015856 0.0
  outer loop
    vertex -284.8412643581735 -54.838324021806955 0.0
    vertex -284.8669297740521 -55.22990259846711 5.0
    vertex -284.8669297740521 -55.22990259846711 0.0
  endloop
endfacet
facet normal 0.991444861373811 -0.13052619222004647 0.0
  outer loop
    vertex -284.8669297740521 -55.22990259846711 5.0
    vertex -284.8412643581735 -54.838324021806955 0.0
    vertex -284.8412643581735 -54.838324021806955 5.0
  endloop
endfacet
facet normal 0.9659258262890716 -0.2588190451025089 0.0
  outer loop
    vertex -284.9434868793063 -55.61478115711451 0.0
    vertex -285.0696257606396 -55.98637431890222 5.0
    vertex -285.0696257606396 -55.98637431890222 0.0
  endloop
endfacet
facet normal 0.9238795325112805 -0.38268343236510527 0.0
  outer loop
    vertex -285.0696257606396 -55.98637431890222 5.0
    vertex -284.9434868793063 -55.61478115711451 0.0
    vertex -284.9434868793063 -55.61478115711451 5.0
  endloop
endfacet
facet normal 0.9238795325112805 -0.38268343236510527 0.0
  outer loop
    vertex -285.0696257606396 -55.98637431890222 0.0
    vertex -285.2431881468202 -56.33832402180695 5.0
    vertex -285.2431881468202 -56.33832402180695 0.0
  endloop
endfacet
facet normal 0.8660254037844287 -0.5000000000000174 0.0
  outer loop
    vertex -285.2431881468202 -56.33832402180695 5.0
    vertex -285.0696257606396 -55.98637431890222 0.0
    vertex -285.0696257606396 -55.98637431890222 5.0
  endloop
endfacet
facet normal 0.7933533402912462 -0.6087614290087063 0.0
  outer loop
    vertex -285.4612043372998 -56.6646083088331 0.0
    vertex -285.7199440146138 -56.95964436536659 5.0
    vertex -285.7199440146138 -56.95964436536659 0.0
  endloop
endfacet
facet normal 0.7071067811865562 -0.7071067811865389 0.0
  outer loop
    vertex -285.7199440146138 -56.95964436536659 5.0
    vertex -285.4612043372998 -56.6646083088331 0.0
    vertex -285.4612043372998 -56.6646083088331 5.0
  endloop
endfacet
facet normal -0.06540312923012809 -0.9978589232386045 1.587036933719925e-31
  outer loop
    vertex -291.8412643581735 -57.83832402180695 5.0
    vertex -292.2328429348336 -57.812658605928384 3.524958103184872e-16
    vertex -291.8412643581735 -57.83832402180695 3.524958103184872e-16
  endloop
endfacet
facet normal -0.1305261922200481 -0.991444861373811 7.952210962693576e-32
  outer loop
    vertex -292.2328429348336 -57.812658605928384 3.524958103184872e-16
    vertex -291.8412643581735 -57.83832402180695 5.0
    vertex -292.2328429348336 -57.812658605928384 5.0
  endloop
endfacet
facet normal -0.1305261922200481 -0.991444861373811 7.952210962693576e-32
  outer loop
    vertex -292.2328429348336 -57.812658605928384 5.0
    vertex -292.61772149348104 -57.73610150067416 3.524958103184872e-16
    vertex -292.2328429348336 -57.812658605928384 3.524958103184872e-16
  endloop
endfacet
facet normal -0.25881904510252524 -0.9659258262890672 0.0
  outer loop
    vertex -292.61772149348104 -57.73610150067416 3.524958103184872e-16
    vertex -292.2328429348336 -57.812658605928384 5.0
    vertex -292.61772149348104 -57.73610150067416 5.0
  endloop
endfacet
facet normal -0.9238795325112805 -0.38268343236510527 0.0
  outer loop
    vertex -294.61290295570734 -55.98637431890222 5.0
    vertex -294.4393405695268 -56.33832402180695 3.524958103184872e-16
    vertex -294.4393405695268 -56.33832402180695 5.0
  endloop
endfacet
facet normal -0.8660254037844287 -0.5000000000000174 0.0
  outer loop
    vertex -294.4393405695268 -56.33832402180695 3.524958103184872e-16
    vertex -294.61290295570734 -55.98637431890222 5.0
    vertex -294.61290295570734 -55.98637431890222 3.524958103184872e-16
  endloop
endfacet
facet normal -0.9659258262890716 -0.2588190451025089 0.0
  outer loop
    vertex -294.7390418370407 -55.61478115711451 5.0
    vertex -294.61290295570734 -55.98637431890222 3.524958103184872e-16
    vertex -294.61290295570734 -55.98637431890222 5.0
  endloop
endfacet
facet normal -0.9238795325112805 -0.38268343236510527 0.0
  outer loop
    vertex -294.61290295570734 -55.98637431890222 3.524958103184872e-16
    vertex -294.7390418370407 -55.61478115711451 5.0
    vertex -294.7390418370407 -55.61478115711451 3.524958103184872e-16
  endloop
endfacet
facet normal -0.38268343236508157 -0.9238795325112903 0.0
  outer loop
    vertex -292.98931465526874 -57.60996261934081 5.0
    vertex -293.3412643581735 -57.43640023316026 3.524958103184872e-16
    vertex -292.98931465526874 -57.60996261934081 3.524958103184872e-16
  endloop
endfacet
facet normal -0.500000000000009 -0.8660254037844335 0.0
  outer loop
    vertex -293.3412643581735 -57.43640023316026 3.524958103184872e-16
    vertex -292.98931465526874 -57.60996261934081 5.0
    vertex -293.3412643581735 -57.43640023316026 5.0
  endloop
endfacet
facet normal -0.991444861373811 -0.13052619222004647 -5.212154435323582e-33
  outer loop
    vertex -294.8155989422949 -55.22990259846711 5.0
    vertex -294.7390418370407 -55.61478115711451 3.524958103184872e-16
    vertex -294.7390418370407 -55.61478115711451 5.0
  endloop
endfacet
facet normal -0.9659258262890716 -0.2588190451025089 0.0
  outer loop
    vertex -294.7390418370407 -55.61478115711451 3.524958103184872e-16
    vertex -294.8155989422949 -55.22990259846711 5.0
    vertex -294.8155989422949 -55.22990259846711 3.524958103184872e-16
  endloop
endfacet
facet normal -0.500000000000009 -0.8660254037844335 0.0
  outer loop
    vertex -293.3412643581735 -57.43640023316026 5.0
    vertex -293.66754864519964 -57.218384042680654 3.524958103184872e-16
    vertex -293.3412643581735 -57.43640023316026 3.524958103184872e-16
  endloop
endfacet
facet normal -0.6087614290087285 -0.7933533402912291 0.0
  outer loop
    vertex -293.66754864519964 -57.218384042680654 3.524958103184872e-16
    vertex -293.3412643581735 -57.43640023316026 5.0
    vertex -293.66754864519964 -57.218384042680654 5.0
  endloop
endfacet
facet normal -0.9978589232386025 -0.06540312923015856 -1.0401989625170616e-32
  outer loop
    vertex -294.8412643581735 -54.838324021806955 5.0
    vertex -294.8155989422949 -55.22990259846711 3.524958103184872e-16
    vertex -294.8155989422949 -55.22990259846711 5.0
  endloop
endfacet
facet normal -0.991444861373811 -0.13052619222004647 -5.212154435323582e-33
  outer loop
    vertex -294.8155989422949 -55.22990259846711 3.524958103184872e-16
    vertex -294.8412643581735 -54.838324021806955 5.0
    vertex -294.8412643581735 -54.838324021806955 3.524958103184872e-16
  endloop
endfacet
facet normal -0.6087614290087285 -0.7933533402912291 0.0
  outer loop
    vertex -293.66754864519964 -57.218384042680654 5.0
    vertex -293.96258470173314 -56.95964436536659 3.524958103184872e-16
    vertex -293.66754864519964 -57.218384042680654 3.524958103184872e-16
  endloop
endfacet
facet normal -0.7071067811865562 -0.7071067811865389 0.0
  outer loop
    vertex -293.96258470173314 -56.95964436536659 3.524958103184872e-16
    vertex -293.66754864519964 -57.218384042680654 5.0
    vertex -293.96258470173314 -56.95964436536659 5.0
  endloop
endfacet
facet normal -0.7933533402912462 -0.6087614290087063 0.0
  outer loop
    vertex -294.2213243790472 -56.6646083088331 5.0
    vertex -293.96258470173314 -56.95964436536659 3.524958103184872e-16
    vertex -293.96258470173314 -56.95964436536659 5.0
  endloop
endfacet
facet normal -0.7071067811865562 -0.7071067811865389 0.0
  outer loop
    vertex -293.96258470173314 -56.95964436536659 3.524958103184872e-16
    vertex -294.2213243790472 -56.6646083088331 5.0
    vertex -294.2213243790472 -56.6646083088331 3.524958103184872e-16
  endloop
endfacet
facet normal -0.25881904510252524 -0.9659258262890672 0.0
  outer loop
    vertex -292.61772149348104 -57.73610150067416 5.0
    vertex -292.98931465526874 -57.60996261934081 3.524958103184872e-16
    vertex -292.61772149348104 -57.73610150067416 3.524958103184872e-16
  endloop
endfacet
facet normal -0.38268343236508157 -0.9238795325112903 0.0
  outer loop
    vertex -292.98931465526874 -57.60996261934081 3.524958103184872e-16
    vertex -292.61772149348104 -57.73610150067416 5.0
    vertex -292.98931465526874 -57.60996261934081 5.0
  endloop
endfacet
facet normal -0.8660254037844287 -0.5000000000000174 0.0
  outer loop
    vertex -294.4393405695268 -56.33832402180695 5.0
    vertex -294.2213243790472 -56.6646083088331 3.524958103184872e-16
    vertex -294.2213243790472 -56.6646083088331 5.0
  endloop
endfacet
facet normal -0.7933533402912462 -0.6087614290087063 0.0
  outer loop
    vertex -294.2213243790472 -56.6646083088331 3.524958103184872e-16
    vertex -294.4393405695268 -56.33832402180695 5.0
    vertex -294.4393405695268 -56.33832402180695 3.524958103184872e-16
  endloop
endfacet
facet normal 0.2588190451025277 0.9659258262890665 0.0
  outer loop
    vertex -290.2294929258273 -54.28721276124056 3.0
    vertex -289.8412643581735 -54.338324021806955 0.0
    vertex -290.2294929258273 -54.28721276124056 0.0
  endloop
endfacet
facet normal 0.0 1.0 0.0
  outer loop
    vertex -289.8412643581735 -54.338324021806955 0.0
    vertex -290.2294929258273 -54.28721276124056 3.0
    vertex -289.8412643581735 -54.338324021806955 3.0
  endloop
endfacet
facet normal 0.0 1.0 0.0
  outer loop
    vertex -289.8412643581735 -54.338324021806955 3.0
    vertex -289.45303579051966 -54.28721276124056 0.0
    vertex -289.8412643581735 -54.338324021806955 0.0
  endloop
endfacet
facet normal -0.2588190451025277 0.9659258262890665 0.0
  outer loop
    vertex -289.45303579051966 -54.28721276124056 0.0
    vertex -289.8412643581735 -54.338324021806955 3.0
    vertex -289.45303579051966 -54.28721276124056 3.0
  endloop
endfacet
facet normal -0.2588190451025277 0.9659258262890665 0.0
  outer loop
    vertex -289.45303579051966 -54.28721276124056 3.0
    vertex -289.0912643581735 -54.137362127483605 0.0
    vertex -289.45303579051966 -54.28721276124056 0.0
  endloop
endfacet
facet normal -0.5000000000000231 0.8660254037844254 0.0
  outer loop
    vertex -289.0912643581735 -54.137362127483605 0.0
    vertex -289.45303579051966 -54.28721276124056 3.0
    vertex -289.0912643581735 -54.137362127483605 3.0
  endloop
endfacet
facet normal -0.5000000000000231 0.8660254037844254 0.0
  outer loop
    vertex -289.0912643581735 -54.137362127483605 3.0
    vertex -288.7806041863937 -53.898984193586784 0.0
    vertex -289.0912643581735 -54.137362127483605 0.0
  endloop
endfacet
facet normal -0.7071067811865339 0.7071067811865612 0.0
  outer loop
    vertex -288.7806041863937 -53.898984193586784 0.0
    vertex -289.0912643581735 -54.137362127483605 3.0
    vertex -288.7806041863937 -53.898984193586784 3.0
  endloop
endfacet
facet normal -0.8660254037844317 0.500000000000012 0.0
  outer loop
    vertex -288.5422262524968 -53.588324021806955 3.0
    vertex -288.7806041863937 -53.898984193586784 0.0
    vertex -288.7806041863937 -53.898984193586784 3.0
  endloop
endfacet
facet normal -0.7071067811865339 0.7071067811865612 0.0
  outer loop
    vertex -288.7806041863937 -53.898984193586784 0.0
    vertex -288.5422262524968 -53.588324021806955 3.0
    vertex -288.5422262524968 -53.588324021806955 0.0
  endloop
endfacet
facet normal -0.7071067811865338 -0.7071067811865612 0.0
  outer loop
    vertex -288.7806041863937 -51.77766385002713 3.0
    vertex -289.0912643581735 -51.539285916130304 0.0
    vertex -288.7806041863937 -51.77766385002713 0.0
  endloop
endfacet
facet normal -0.5000000000000231 -0.8660254037844254 0.0
  outer loop
    vertex -289.0912643581735 -51.539285916130304 0.0
    vertex -288.7806041863937 -51.77766385002713 3.0
    vertex -289.0912643581735 -51.539285916130304 3.0
  endloop
endfacet
facet normal 1.0 0.0 0.0
  outer loop
    vertex -291.3412643581735 -52.838324021806955 0.0
    vertex -291.2901530976071 -53.22655258946074 3.0
    vertex -291.2901530976071 -53.22655258946074 0.0
  endloop
endfacet
facet normal 0.9659258262890813 0.25881904510247267 0.0
  outer loop
    vertex -291.2901530976071 -53.22655258946074 3.0
    vertex -291.3412643581735 -52.838324021806955 0.0
    vertex -291.3412643581735 -52.838324021806955 3.0
  endloop
endfacet
facet normal -0.9659258262890813 0.25881904510247267 0.0
  outer loop
    vertex -288.3923756187399 -53.22655258946074 3.0
    vertex -288.5422262524968 -53.588324021806955 0.0
    vertex -288.5422262524968 -53.588324021806955 3.0
  endloop
endfacet
facet normal -0.8660254037844317 0.500000000000012 0.0
  outer loop
    vertex -288.5422262524968 -53.588324021806955 0.0
    vertex -288.3923756187399 -53.22655258946074 3.0
    vertex -288.3923756187399 -53.22655258946074 0.0
  endloop
endfacet
facet normal -0.7071067811865338 -0.7071067811865612 0.0
  outer loop
    vertex -288.7806041863937 -51.77766385002713 3.0
    vertex -288.5422262524968 -52.08832402180696 0.0
    vertex -288.5422262524968 -52.08832402180696 3.0
  endloop
endfacet
facet normal -0.8660254037844317 -0.500000000000012 0.0
  outer loop
    vertex -288.5422262524968 -52.08832402180696 0.0
    vertex -288.7806041863937 -51.77766385002713 3.0
    vertex -288.7806041863937 -51.77766385002713 0.0
  endloop
endfacet
facet normal -0.2588190451025277 -0.9659258262890665 0.0
  outer loop
    vertex -289.45303579051966 -51.389435282373356 3.0
    vertex -289.8412643581735 -51.33832402180696 0.0
    vertex -289.45303579051966 -51.389435282373356 0.0
  endloop
endfacet
facet normal 0.0 -1.0 0.0
  outer loop
    vertex -289.8412643581735 -51.33832402180696 0.0
    vertex -289.45303579051966 -51.389435282373356 3.0
    vertex -289.8412643581735 -51.33832402180696 3.0
  endloop
endfacet
facet normal -0.8660254037844317 -0.500000000000012 0.0
  outer loop
    vertex -288.5422262524968 -52.08832402180696 3.0
    vertex -288.3923756187399 -52.45009545415318 0.0
    vertex -288.3923756187399 -52.45009545415318 3.0
  endloop
endfacet
facet normal -0.9659258262890813 -0.25881904510247267 0.0
  outer loop
    vertex -288.3923756187399 -52.45009545415318 0.0
    vertex -288.5422262524968 -52.08832402180696 3.0
    vertex -288.5422262524968 -52.08832402180696 0.0
  endloop
endfacet
facet normal 0.0 -1.0 0.0
  outer loop
    vertex -289.8412643581735 -51.33832402180696 3.0
    vertex -290.2294929258273 -51.389435282373356 0.0
    vertex -289.8412643581735 -51.33832402180696 0.0
  endloop
endfacet
facet normal 0.2588190451025277 -0.9659258262890665 0.0
  outer loop
    vertex -290.2294929258273 -51.389435282373356 0.0
    vertex -289.8412643581735 -51.33832402180696 3.0
    vertex -290.2294929258273 -51.389435282373356 3.0
  endloop
endfacet
facet normal 0.5000000000000231 -0.8660254037844254 0.0
  outer loop
    vertex -290.5912643581735 -51.539285916130304 3.0
    vertex -290.9019245299533 -51.77766385002713 0.0
    vertex -290.5912643581735 -51.539285916130304 0.0
  endloop
endfacet
facet normal 0.7071067811865339 -0.7071067811865612 0.0
  outer loop
    vertex -290.9019245299533 -51.77766385002713 0.0
    vertex -290.5912643581735 -51.539285916130304 3.0
    vertex -290.9019245299533 -51.77766385002713 3.0
  endloop
endfacet
facet normal -0.5000000000000231 -0.8660254037844254 0.0
  outer loop
    vertex -289.0912643581735 -51.539285916130304 3.0
    vertex -289.45303579051966 -51.389435282373356 0.0
    vertex -289.0912643581735 -51.539285916130304 0.0
  endloop
endfacet
facet normal -0.2588190451025277 -0.9659258262890665 0.0
  outer loop
    vertex -289.45303579051966 -51.389435282373356 0.0
    vertex -289.0912643581735 -51.539285916130304 3.0
    vertex -289.45303579051966 -51.389435282373356 3.0
  endloop
endfacet
facet normal 0.2588190451025277 -0.9659258262890665 0.0
  outer loop
    vertex -290.2294929258273 -51.389435282373356 3.0
    vertex -290.5912643581735 -51.539285916130304 0.0
    vertex -290.2294929258273 -51.389435282373356 0.0
  endloop
endfacet
facet normal 0.5000000000000231 -0.8660254037844254 0.0
  outer loop
    vertex -290.5912643581735 -51.539285916130304 0.0
    vertex -290.2294929258273 -51.389435282373356 3.0
    vertex -290.5912643581735 -51.539285916130304 3.0
  endloop
endfacet
facet normal 0.7071067811865339 -0.7071067811865612 0.0
  outer loop
    vertex -290.9019245299533 -51.77766385002713 0.0
    vertex -291.14030246385016 -52.08832402180696 3.0
    vertex -291.14030246385016 -52.08832402180696 0.0
  endloop
endfacet
facet normal 0.8660254037844317 -0.500000000000012 0.0
  outer loop
    vertex -291.14030246385016 -52.08832402180696 3.0
    vertex -290.9019245299533 -51.77766385002713 0.0
    vertex -290.9019245299533 -51.77766385002713 3.0
  endloop
endfacet
facet normal 0.8660254037844317 -0.500000000000012 0.0
  outer loop
    vertex -291.14030246385016 -52.08832402180696 0.0
    vertex -291.2901530976071 -52.45009545415318 3.0
    vertex -291.2901530976071 -52.45009545415318 0.0
  endloop
endfacet
facet normal 0.9659258262890813 -0.25881904510247267 0.0
  outer loop
    vertex -291.2901530976071 -52.45009545415318 3.0
    vertex -291.14030246385016 -52.08832402180696 0.0
    vertex -291.14030246385016 -52.08832402180696 3.0
  endloop
endfacet
facet normal 0.9659258262890813 -0.25881904510247267 0.0
  outer loop
    vertex -291.2901530976071 -52.45009545415318 0.0
    vertex -291.3412643581735 -52.838324021806955 3.0
    vertex -291.3412643581735 -52.838324021806955 0.0
  endloop
endfacet
facet normal 1.0 0.0 0.0
  outer loop
    vertex -291.3412643581735 -52.838324021806955 3.0
    vertex -291.2901530976071 -52.45009545415318 0.0
    vertex -291.2901530976071 -52.45009545415318 3.0
  endloop
endfacet
facet normal 0.9659258262890813 0.25881904510247267 0.0
  outer loop
    vertex -291.2901530976071 -53.22655258946074 0.0
    vertex -291.14030246385016 -53.588324021806955 3.0
    vertex -291.14030246385016 -53.588324021806955 0.0
  endloop
endfacet
facet normal 0.8660254037844317 0.500000000000012 0.0
  outer loop
    vertex -291.14030246385016 -53.588324021806955 3.0
    vertex -291.2901530976071 -53.22655258946074 0.0
    vertex -291.2901530976071 -53.22655258946074 3.0
  endloop
endfacet
facet normal 0.8660254037844317 0.500000000000012 0.0
  outer loop
    vertex -291.14030246385016 -53.588324021806955 0.0
    vertex -290.9019245299533 -53.898984193586784 3.0
    vertex -290.9019245299533 -53.898984193586784 0.0
  endloop
endfacet
facet normal 0.7071067811865338 0.7071067811865612 0.0
  outer loop
    vertex -290.9019245299533 -53.898984193586784 3.0
    vertex -291.14030246385016 -53.588324021806955 0.0
    vertex -291.14030246385016 -53.588324021806955 3.0
  endloop
endfacet
facet normal 0.7071067811865338 0.7071067811865612 0.0
  outer loop
    vertex -290.9019245299533 -53.898984193586784 3.0
    vertex -290.5912643581735 -54.137362127483605 0.0
    vertex -290.9019245299533 -53.898984193586784 0.0
  endloop
endfacet
facet normal 0.5000000000000231 0.8660254037844254 0.0
  outer loop
    vertex -290.5912643581735 -54.137362127483605 0.0
    vertex -290.9019245299533 -53.898984193586784 3.0
    vertex -290.5912643581735 -54.137362127483605 3.0
  endloop
endfacet
facet normal 0.5000000000000231 0.8660254037844254 0.0
  outer loop
    vertex -290.5912643581735 -54.137362127483605 3.0
    vertex -290.2294929258273 -54.28721276124056 0.0
    vertex -290.5912643581735 -54.137362127483605 0.0
  endloop
endfacet
facet normal 0.2588190451025277 0.9659258262890665 0.0
  outer loop
    vertex -290.2294929258273 -54.28721276124056 0.0
    vertex -290.5912643581735 -54.137362127483605 3.0
    vertex -290.2294929258273 -54.28721276124056 3.0
  endloop
endfacet
facet normal -1.0 0.0 0.0
  outer loop
    vertex -288.34126435817353 -52.838324021806955 3.0
    vertex -288.3923756187399 -53.22655258946074 0.0
    vertex -288.3923756187399 -53.22655258946074 3.0
  endloop
endfacet
facet normal -0.9659258262890813 0.25881904510247267 0.0
  outer loop
    vertex -288.3923756187399 -53.22655258946074 0.0
    vertex -288.34126435817353 -52.838324021806955 3.0
    vertex -288.34126435817353 -52.838324021806955 0.0
  endloop
endfacet
facet normal -0.9659258262890813 -0.25881904510247267 0.0
  outer loop
    vertex -288.3923756187399 -52.45009545415318 3.0
    vertex -288.34126435817353 -52.838324021806955 0.0
    vertex -288.34126435817353 -52.838324021806955 3.0
  endloop
endfacet
facet normal -1.0 0.0 0.0
  outer loop
    vertex -288.34126435817353 -52.838324021806955 0.0
    vertex -288.3923756187399 -52.45009545415318 3.0
    vertex -288.3923756187399 -52.45009545415318 0.0
  endloop
endfacet
facet normal 0.38268343236508157 -0.9238795325112903 0.0
  outer loop
    vertex -286.6932140610782 -57.60996261934081 5.0
    vertex -287.0648072228659 -57.73610150067416 0.0
    vertex -286.6932140610782 -57.60996261934081 0.0
  endloop
endfacet
facet normal 0.25881904510252524 -0.9659258262890672 0.0
  outer loop
    vertex -287.0648072228659 -57.73610150067416 0.0
    vertex -286.6932140610782 -57.60996261934081 5.0
    vertex -287.0648072228659 -57.73610150067416 5.0
  endloop
endfacet
facet normal 0.25881904510252524 -0.9659258262890672 0.0
  outer loop
    vertex -287.0648072228659 -57.73610150067416 5.0
    vertex -287.4496857815133 -57.812658605928384 0.0
    vertex -287.0648072228659 -57.73610150067416 0.0
  endloop
endfacet
facet normal 0.1305261922200481 -0.991444861373811 0.0
  outer loop
    vertex -287.4496857815133 -57.812658605928384 0.0
    vertex -287.0648072228659 -57.73610150067416 5.0
    vertex -287.4496857815133 -57.812658605928384 5.0
  endloop
endfacet
facet normal 0.1305261922200481 -0.991444861373811 0.0
  outer loop
    vertex -287.4496857815133 -57.812658605928384 5.0
    vertex -287.8412643581735 -57.83832402180695 0.0
    vertex -287.4496857815133 -57.812658605928384 0.0
  endloop
endfacet
facet normal 0.06540312923012809 -0.9978589232386045 0.0
  outer loop
    vertex -287.8412643581735 -57.83832402180695 0.0
    vertex -287.4496857815133 -57.812658605928384 5.0
    vertex -287.8412643581735 -57.83832402180695 5.0
  endloop
endfacet
facet normal 1.0 0.0 0.0
  outer loop
    vertex -284.8412643581735 -42.83832402180696 0.0
    vertex -284.8412643581735 -54.838324021806955 5.0
    vertex -284.8412643581735 -54.838324021806955 0.0
  endloop
endfacet
facet normal 1.0 0.0 0.0
  outer loop
    vertex -284.8412643581735 -54.838324021806955 5.0
    vertex -284.8412643581735 -42.83832402180696 0.0
    vertex -284.8412643581735 -48.35579238132793 4.987346162231979
  endloop
endfacet
facet normal 1.0 0.0 0.0
  outer loop
    vertex -284.8412643581735 -48.35579238132793 4.987346162231979
    vertex -284.8412643581735 -42.83832402180696 0.0
    vertex -284.8412643581735 -48.116182762862266 4.943122857141024
  endloop
endfacet
facet normal 1.0 0.0 0.0
  outer loop
    vertex -284.8412643581735 -48.116182762862266 4.943122857141024
    vertex -284.8412643581735 -42.83832402180696 0.0
    vertex -284.8412643581735 -47.87855549391445 4.899046995485068
  endloop
endfacet
facet normal 1.0 0.0 0.0
  outer loop
    vertex -284.8412643581735 -47.87855549391445 4.899046995485068
    vertex -284.8412643581735 -42.83832402180696 0.0
    vertex -284.8412643581735 -47.6435628849517 4.84258573211633
  endloop
endfacet
facet normal 1.0 0.0 0.0
  outer loop
    vertex -284.8412643581735 -47.6435628849517 4.84258573211633
    vertex -284.8412643581735 -42.83832402180696 0.0
    vertex -284.8412643581735 -47.41185001403777 4.773894058813535
  endloop
endfacet
facet normal 1.0 0.0 0.0
  outer loop
    vertex -284.8412643581735 -47.41185001403777 4.773894058813535
    vertex -284.8412643581735 -42.83832402180696 0.0
    vertex -284.8412643581735 -47.18405295602955 4.693160541046064
  endloop
endfacet
facet normal 1.0 0.0 0.0
  outer loop
    vertex -284.8412643581735 -47.18405295602955 4.693160541046064
    vertex -284.8412643581735 -42.83832402180696 0.0
    vertex -284.8412643581735 -46.96079703648835 4.600606800342997
  endloop
endfacet
facet normal 1.0 0.0 0.0
  outer loop
    vertex -284.8412643581735 -46.96079703648835 4.600606800342997
    vertex -284.8412643581735 -42.83832402180696 0.0
    vertex -284.8412643581735 -46.74269511509916 4.496486905919998
  endloop
endfacet
facet normal 1.0 0.0 0.0
  outer loop
    vertex -284.8412643581735 -46.74269511509916 4.496486905919998
    vertex -284.8412643581735 -42.83832402180696 0.0
    vertex -284.8412643581735 -46.530345903309836 4.381086677234063
  endloop
endfacet
facet normal 1.0 0.0 0.0
  outer loop
    vertex -284.8412643581735 -46.530345903309836 4.381086677234063
    vertex -284.8412643581735 -42.83832402180696 0.0
    vertex -284.8412643581735 -41.83832402180695 0.9999999999999999
  endloop
endfacet
facet normal 1.0 0.0 0.0
  outer loop
    vertex -284.8412643581735 -41.83832402180695 0.9999999999999999
    vertex -284.8412643581735 -42.83832402180696 0.0
    vertex -284.8412643581735 -41.83832402180695 0.0
  endloop
endfacet
facet normal 0.0 0.0 1.0
  outer loop
    vertex -293.7049676633298 -53.873600202217034 3.0
    vertex -293.7049676633298 -51.803047841396875 3.0
    vertex -293.8412643581735 -52.838324021806955 3.0
  endloop
endfacet
facet normal 0.0 0.0 1.0
  outer loop
    vertex -293.7049676633298 -51.803047841396875 3.0
    vertex -293.7049676633298 -53.873600202217034 3.0
    vertex -293.3053659733112 -54.838324021806955 3.0
  endloop
endfacet
facet normal 0.0 0.0 1.0
  outer loop
    vertex -293.7049676633298 -51.803047841396875 3.0
    vertex -293.3053659733112 -54.838324021806955 3.0
    vertex -293.3053659733112 -50.83832402180696 3.0
  endloop
endfacet
facet normal 0.0 0.0 1.0
  outer loop
    vertex -293.3053659733112 -50.83832402180696 3.0
    vertex -293.3053659733112 -54.838324021806955 3.0
    vertex -292.6696914829197 -55.666751146553146 3.0
  endloop
endfacet
facet normal 0.0 0.0 1.0
  outer loop
    vertex -293.3053659733112 -50.83832402180696 3.0
    vertex -292.6696914829197 -55.666751146553146 3.0
    vertex -292.6696914829197 -50.00989689706077 3.0
  endloop
endfacet
facet normal 0.0 0.0 1.0
  outer loop
    vertex -292.6696914829197 -50.00989689706077 3.0
    vertex -292.6696914829197 -55.666751146553146 3.0
    vertex -291.8412643581735 -56.302425636944704 3.0
  endloop
endfacet
facet normal 0.0 0.0 1.0
  outer loop
    vertex -292.6696914829197 -50.00989689706077 3.0
    vertex -291.8412643581735 -56.302425636944704 3.0
    vertex -291.8412643581735 -49.37422240666921 3.0
  endloop
endfacet
facet normal 0.0 0.0 1.0
  outer loop
    vertex -291.8412643581735 -49.37422240666921 3.0
    vertex -291.8412643581735 -56.302425636944704 3.0
    vertex -290.8765405385836 -56.702027326963226 3.0
  endloop
endfacet
facet normal 0.0 0.0 1.0
  outer loop
    vertex -291.8412643581735 -49.37422240666921 3.0
    vertex -290.8765405385836 -56.702027326963226 3.0
    vertex -291.3412643581735 -52.838324021806955 3.0
  endloop
endfacet
facet normal 0.0 0.0 1.0
  outer loop
    vertex -291.3412643581735 -52.838324021806955 3.0
    vertex -290.8765405385836 -56.702027326963226 3.0
    vertex -291.2901530976071 -53.22655258946074 3.0
  endloop
endfacet
facet normal 0.0 0.0 1.0
  outer loop
    vertex -291.2901530976071 -53.22655258946074 3.0
    vertex -290.8765405385836 -56.702027326963226 3.0
    vertex -291.14030246385016 -53.588324021806955 3.0
  endloop
endfacet
facet normal 0.0 0.0 1.0
  outer loop
    vertex -291.14030246385016 -53.588324021806955 3.0
    vertex -290.8765405385836 -56.702027326963226 3.0
    vertex -290.9019245299533 -53.898984193586784 3.0
  endloop
endfacet
facet normal 0.0 0.0 1.0
  outer loop
    vertex -290.9019245299533 -53.898984193586784 3.0
    vertex -290.8765405385836 -56.702027326963226 3.0
    vertex -290.5912643581735 -54.137362127483605 3.0
  endloop
endfacet
facet normal 0.0 0.0 1.0
  outer loop
    vertex -290.5912643581735 -54.137362127483605 3.0
    vertex -290.8765405385836 -56.702027326963226 3.0
    vertex -289.8412643581735 -56.83832402180695 3.0
  endloop
endfacet
facet normal 0.0 0.0 1.0
  outer loop
    vertex -290.5912643581735 -54.137362127483605 3.0
    vertex -289.8412643581735 -56.83832402180695 3.0
    vertex -290.2294929258273 -54.28721276124056 3.0
  endloop
endfacet
facet normal 0.0 0.0 1.0
  outer loop
    vertex -290.2294929258273 -54.28721276124056 3.0
    vertex -289.8412643581735 -56.83832402180695 3.0
    vertex -289.8412643581735 -54.338324021806955 3.0
  endloop
endfacet
facet normal 0.0 0.0 1.0
  outer loop
    vertex -289.8412643581735 -54.338324021806955 3.0
    vertex -289.8412643581735 -56.83832402180695 3.0
    vertex -288.80598817776337 -56.702027326963226 3.0
  endloop
endfacet
facet normal 0.0 0.0 1.0
  outer loop
    vertex -289.8412643581735 -54.338324021806955 3.0
    vertex -288.80598817776337 -56.702027326963226 3.0
    vertex -289.45303579051966 -54.28721276124056 3.0
  endloop
endfacet
facet normal 0.0 0.0 1.0
  outer loop
    vertex -289.45303579051966 -54.28721276124056 3.0
    vertex -288.80598817776337 -56.702027326963226 3.0
    vertex -289.0912643581735 -54.137362127483605 3.0
  endloop
endfacet
facet normal 0.0 0.0 1.0
  outer loop
    vertex -289.0912643581735 -54.137362127483605 3.0
    vertex -288.80598817776337 -56.702027326963226 3.0
    vertex -288.7806041863937 -53.898984193586784 3.0
  endloop
endfacet
facet normal 0.0 0.0 1.0
  outer loop
    vertex -288.7806041863937 -53.898984193586784 3.0
    vertex -288.80598817776337 -56.702027326963226 3.0
    vertex -287.8412643581735 -56.302425636944704 3.0
  endloop
endfacet
facet normal 0.0 0.0 1.0
  outer loop
    vertex -288.7806041863937 -53.898984193586784 3.0
    vertex -287.8412643581735 -56.302425636944704 3.0
    vertex -288.5422262524968 -53.588324021806955 3.0
  endloop
endfacet
facet normal 0.0 0.0 1.0
  outer loop
    vertex -288.5422262524968 -53.588324021806955 3.0
    vertex -287.8412643581735 -56.302425636944704 3.0
    vertex -288.3923756187399 -53.22655258946074 3.0
  endloop
endfacet
facet normal 0.0 0.0 1.0
  outer loop
    vertex -288.3923756187399 -53.22655258946074 3.0
    vertex -287.8412643581735 -56.302425636944704 3.0
    vertex -288.34126435817353 -52.838324021806955 3.0
  endloop
endfacet
facet normal 0.0 0.0 1.0
  outer loop
    vertex -291.3412643581735 -52.838324021806955 3.0
    vertex -290.8765405385836 -48.97462071665069 3.0
    vertex -291.8412643581735 -49.37422240666921 3.0
  endloop
endfacet
facet normal 0.0 0.0 1.0
  outer loop
    vertex -290.8765405385836 -48.97462071665069 3.0
    vertex -291.3412643581735 -52.838324021806955 3.0
    vertex -291.2901530976071 -52.45009545415318 3.0
  endloop
endfacet
facet normal 0.0 0.0 1.0
  outer loop
    vertex -290.8765405385836 -48.97462071665069 3.0
    vertex -291.2901530976071 -52.45009545415318 3.0
    vertex -291.14030246385016 -52.08832402180696 3.0
  endloop
endfacet
facet normal 0.0 0.0 1.0
  outer loop
    vertex -290.8765405385836 -48.97462071665069 3.0
    vertex -291.14030246385016 -52.08832402180696 3.0
    vertex -290.9019245299533 -51.77766385002713 3.0
  endloop
endfacet
facet normal 0.0 0.0 1.0
  outer loop
    vertex -290.8765405385836 -48.97462071665069 3.0
    vertex -290.9019245299533 -51.77766385002713 3.0
    vertex -290.5912643581735 -51.539285916130304 3.0
  endloop
endfacet
facet normal 0.0 0.0 1.0
  outer loop
    vertex -290.8765405385836 -48.97462071665069 3.0
    vertex -290.5912643581735 -51.539285916130304 3.0
    vertex -289.8412643581735 -48.83832402180696 3.0
  endloop
endfacet
facet normal 0.0 0.0 1.0
  outer loop
    vertex -289.8412643581735 -48.83832402180696 3.0
    vertex -290.5912643581735 -51.539285916130304 3.0
    vertex -290.2294929258273 -51.389435282373356 3.0
  endloop
endfacet
facet normal 0.0 0.0 1.0
  outer loop
    vertex -289.8412643581735 -48.83832402180696 3.0
    vertex -290.2294929258273 -51.389435282373356 3.0
    vertex -289.8412643581735 -51.33832402180696 3.0
  endloop
endfacet
facet normal 0.0 0.0 1.0
  outer loop
    vertex -289.8412643581735 -48.83832402180696 3.0
    vertex -289.8412643581735 -51.33832402180696 3.0
    vertex -289.45303579051966 -51.389435282373356 3.0
  endloop
endfacet
facet normal 0.0 0.0 1.0
  outer loop
    vertex -289.8412643581735 -48.83832402180696 3.0
    vertex -289.45303579051966 -51.389435282373356 3.0
    vertex -288.80598817776337 -48.97462071665069 3.0
  endloop
endfacet
facet normal 0.0 0.0 1.0
  outer loop
    vertex -288.80598817776337 -48.97462071665069 3.0
    vertex -289.45303579051966 -51.389435282373356 3.0
    vertex -289.0912643581735 -51.539285916130304 3.0
  endloop
endfacet
facet normal 0.0 0.0 1.0
  outer loop
    vertex -288.80598817776337 -48.97462071665069 3.0
    vertex -289.0912643581735 -51.539285916130304 3.0
    vertex -288.7806041863937 -51.77766385002713 3.0
  endloop
endfacet
facet normal 0.0 0.0 1.0
  outer loop
    vertex -288.80598817776337 -48.97462071665069 3.0
    vertex -288.7806041863937 -51.77766385002713 3.0
    vertex -287.8412643581735 -49.374222406669205 3.0
  endloop
endfacet
facet normal 0.0 0.0 1.0
  outer loop
    vertex -287.8412643581735 -49.374222406669205 3.0
    vertex -288.7806041863937 -51.77766385002713 3.0
    vertex -288.5422262524968 -52.08832402180696 3.0
  endloop
endfacet
facet normal 0.0 0.0 1.0
  outer loop
    vertex -287.8412643581735 -49.374222406669205 3.0
    vertex -288.5422262524968 -52.08832402180696 3.0
    vertex -288.3923756187399 -52.45009545415318 3.0
  endloop
endfacet
facet normal 0.0 0.0 1.0
  outer loop
    vertex -287.8412643581735 -49.374222406669205 3.0
    vertex -288.3923756187399 -52.45009545415318 3.0
    vertex -288.34126435817353 -52.838324021806955 3.0
  endloop
endfacet
facet normal 0.0 0.0 1.0
  outer loop
    vertex -287.8412643581735 -49.374222406669205 3.0
    vertex -288.34126435817353 -52.838324021806955 3.0
    vertex -287.8412643581735 -56.302425636944704 3.0
  endloop
endfacet
facet normal 0.0 0.0 1.0
  outer loop
    vertex -287.8412643581735 -49.374222406669205 3.0
    vertex -287.8412643581735 -56.302425636944704 3.0
    vertex -287.01283723342726 -55.666751146553146 3.0
  endloop
endfacet
facet normal 0.0 0.0 1.0
  outer loop
    vertex -287.8412643581735 -49.374222406669205 3.0
    vertex -287.01283723342726 -55.666751146553146 3.0
    vertex -287.01283723342726 -50.00989689706077 3.0
  endloop
endfacet
facet normal 0.0 0.0 1.0
  outer loop
    vertex -287.01283723342726 -50.00989689706077 3.0
    vertex -287.01283723342726 -55.666751146553146 3.0
    vertex -286.37716274303574 -54.838324021806955 3.0
  endloop
endfacet
facet normal 0.0 0.0 1.0
  outer loop
    vertex -287.01283723342726 -50.00989689706077 3.0
    vertex -286.37716274303574 -54.838324021806955 3.0
    vertex -286.37716274303574 -50.83832402180696 3.0
  endloop
endfacet
facet normal 0.0 0.0 1.0
  outer loop
    vertex -286.37716274303574 -50.83832402180696 3.0
    vertex -286.37716274303574 -54.838324021806955 3.0
    vertex -285.9775610530172 -53.873600202217034 3.0
  endloop
endfacet
facet normal 0.0 0.0 1.0
  outer loop
    vertex -286.37716274303574 -50.83832402180696 3.0
    vertex -285.9775610530172 -53.873600202217034 3.0
    vertex -285.97756105301727 -51.803047841396875 3.0
  endloop
endfacet
facet normal 0.0 0.0 1.0
  outer loop
    vertex -285.97756105301727 -51.803047841396875 3.0
    vertex -285.9775610530172 -53.873600202217034 3.0
    vertex -285.8412643581735 -52.838324021806955 3.0
  endloop
endfacet
facet normal -1.0 -2.143121929903081e-14 0.0
  outer loop
    vertex -285.8412643581735 -52.838324021806955 5.0
    vertex -285.9775610530172 -53.873600202217034 3.0
    vertex -285.9775610530172 -53.873600202217034 5.0
  endloop
endfacet
facet normal -0.9659258262890669 0.25881904510252596 0.0
  outer loop
    vertex -285.9775610530172 -53.873600202217034 3.0
    vertex -285.8412643581735 -52.838324021806955 5.0
    vertex -285.8412643581735 -52.838324021806955 3.0
  endloop
endfacet
facet normal -0.9659258262890665 -0.25881904510252735 0.0
  outer loop
    vertex -285.97756105301727 -51.803047841396875 5.0
    vertex -285.8412643581735 -52.838324021806955 3.0
    vertex -285.8412643581735 -52.838324021806955 5.0
  endloop
endfacet
facet normal -1.0 -2.143121929903081e-14 0.0
  outer loop
    vertex -285.8412643581735 -52.838324021806955 3.0
    vertex -285.97756105301727 -51.803047841396875 5.0
    vertex -285.97756105301727 -51.803047841396875 3.0
  endloop
endfacet
facet normal -0.7071067811865528 -0.7071067811865424 0.0
  outer loop
    vertex -287.01283723342726 -50.00989689706077 5.0
    vertex -286.37716274303574 -50.83832402180696 3.0
    vertex -286.37716274303574 -50.83832402180696 5.0
  endloop
endfacet
facet normal -0.8660254037844459 -0.4999999999999875 0.0
  outer loop
    vertex -286.37716274303574 -50.83832402180696 3.0
    vertex -287.01283723342726 -50.00989689706077 5.0
    vertex -287.01283723342726 -50.00989689706077 3.0
  endloop
endfacet
facet normal 0.2588190451025232 -0.9659258262890676 5.234642172902355e-31
  outer loop
    vertex -290.8765405385836 -48.97462071665069 5.0
    vertex -291.8412643581735 -49.37422240666921 3.0
    vertex -290.8765405385836 -48.97462071665069 3.0
  endloop
endfacet
facet normal 0.4999999999999982 -0.8660254037844397 0.0
  outer loop
    vertex -291.8412643581735 -49.37422240666921 3.0
    vertex -290.8765405385836 -48.97462071665069 5.0
    vertex -291.8412643581735 -49.37422240666921 5.0
  endloop
endfacet
facet normal 0.0 -1.0 0.0
  outer loop
    vertex -289.8412643581735 -48.83832402180696 5.0
    vertex -290.8765405385836 -48.97462071665069 3.0
    vertex -289.8412643581735 -48.83832402180696 3.0
  endloop
endfacet
facet normal 0.2588190451025232 -0.9659258262890676 5.234642172902355e-31
  outer loop
    vertex -290.8765405385836 -48.97462071665069 3.0
    vertex -289.8412643581735 -48.83832402180696 5.0
    vertex -290.8765405385836 -48.97462071665069 5.0
  endloop
endfacet
facet normal -0.7071067811865528 -0.7071067811865424 0.0
  outer loop
    vertex -287.01283723342726 -50.00989689706077 5.0
    vertex -287.8412643581735 -49.374222406669205 3.0
    vertex -287.01283723342726 -50.00989689706077 3.0
  endloop
endfacet
facet normal -0.499999999999998 -0.8660254037844398 0.0
  outer loop
    vertex -287.8412643581735 -49.374222406669205 3.0
    vertex -287.01283723342726 -50.00989689706077 5.0
    vertex -287.8412643581735 -49.374222406669205 5.0
  endloop
endfacet
facet normal -0.499999999999998 -0.8660254037844398 0.0
  outer loop
    vertex -287.8412643581735 -49.374222406669205 5.0
    vertex -288.80598817776337 -48.97462071665069 3.0
    vertex -287.8412643581735 -49.374222406669205 3.0
  endloop
endfacet
facet normal -0.2588190451025208 -0.9659258262890684 -5.2346421729023526e-31
  outer loop
    vertex -288.80598817776337 -48.97462071665069 3.0
    vertex -287.8412643581735 -49.374222406669205 5.0
    vertex -288.80598817776337 -48.97462071665069 5.0
  endloop
endfacet
facet normal 0.7071067811865513 -0.7071067811865437 0.0
  outer loop
    vertex -292.6696914829197 -50.00989689706077 3.0
    vertex -293.3053659733112 -50.83832402180696 5.0
    vertex -293.3053659733112 -50.83832402180696 3.0
  endloop
endfacet
facet normal 0.8660254037844359 -0.5000000000000048 0.0
  outer loop
    vertex -293.3053659733112 -50.83832402180696 5.0
    vertex -292.6696914829197 -50.00989689706077 3.0
    vertex -292.6696914829197 -50.00989689706077 5.0
  endloop
endfacet
facet normal -0.8660254037844359 0.5000000000000048 0.0
  outer loop
    vertex -286.37716274303574 -54.838324021806955 5.0
    vertex -287.01283723342726 -55.666751146553146 3.0
    vertex -287.01283723342726 -55.666751146553146 5.0
  endloop
endfacet
facet normal -0.7071067811865513 0.7071067811865437 0.0
  outer loop
    vertex -287.01283723342726 -55.666751146553146 3.0
    vertex -286.37716274303574 -54.838324021806955 5.0
    vertex -286.37716274303574 -54.838324021806955 3.0
  endloop
endfacet
facet normal -0.8660254037844459 -0.4999999999999875 0.0
  outer loop
    vertex -286.37716274303574 -50.83832402180696 5.0
    vertex -285.97756105301727 -51.803047841396875 3.0
    vertex -285.97756105301727 -51.803047841396875 5.0
  endloop
endfacet
facet normal -0.9659258262890665 -0.25881904510252735 0.0
  outer loop
    vertex -285.97756105301727 -51.803047841396875 3.0
    vertex -286.37716274303574 -50.83832402180696 5.0
    vertex -286.37716274303574 -50.83832402180696 3.0
  endloop
endfacet
facet normal 0.4999999999999982 -0.8660254037844397 0.0
  outer loop
    vertex -291.8412643581735 -49.37422240666921 5.0
    vertex -292.6696914829197 -50.00989689706077 3.0
    vertex -291.8412643581735 -49.37422240666921 3.0
  endloop
endfacet
facet normal 0.7071067811865513 -0.7071067811865437 0.0
  outer loop
    vertex -292.6696914829197 -50.00989689706077 3.0
    vertex -291.8412643581735 -49.37422240666921 5.0
    vertex -292.6696914829197 -50.00989689706077 5.0
  endloop
endfacet
facet normal -0.2588190451025208 -0.9659258262890684 -5.2346421729023526e-31
  outer loop
    vertex -288.80598817776337 -48.97462071665069 5.0
    vertex -289.8412643581735 -48.83832402180696 3.0
    vertex -288.80598817776337 -48.97462071665069 3.0
  endloop
endfacet
facet normal 0.0 -1.0 0.0
  outer loop
    vertex -289.8412643581735 -48.83832402180696 3.0
    vertex -288.80598817776337 -48.97462071665069 5.0
    vertex -289.8412643581735 -48.83832402180696 5.0
  endloop
endfacet
facet normal -0.2588190451025232 0.9659258262890676 -5.234642172902355e-31
  outer loop
    vertex -288.80598817776337 -56.702027326963226 5.0
    vertex -287.8412643581735 -56.302425636944704 3.0
    vertex -288.80598817776337 -56.702027326963226 3.0
  endloop
endfacet
facet normal -0.4999999999999982 0.8660254037844397 0.0
  outer loop
    vertex -287.8412643581735 -56.302425636944704 3.0
    vertex -288.80598817776337 -56.702027326963226 5.0
    vertex -287.8412643581735 -56.302425636944704 5.0
  endloop
endfacet
facet normal 0.4999999999999982 0.8660254037844397 0.0
  outer loop
    vertex -291.8412643581735 -56.302425636944704 5.0
    vertex -290.8765405385836 -56.702027326963226 3.0
    vertex -291.8412643581735 -56.302425636944704 3.0
  endloop
endfacet
facet normal 0.2588190451025232 0.9659258262890676 -5.234642172902355e-31
  outer loop
    vertex -290.8765405385836 -56.702027326963226 3.0
    vertex -291.8412643581735 -56.302425636944704 5.0
    vertex -290.8765405385836 -56.702027326963226 5.0
  endloop
endfacet
facet normal 0.8660254037844359 0.5000000000000048 0.0
  outer loop
    vertex -293.3053659733112 -54.838324021806955 3.0
    vertex -292.6696914829197 -55.666751146553146 5.0
    vertex -292.6696914829197 -55.666751146553146 3.0
  endloop
endfacet
facet normal 0.7071067811865513 0.7071067811865437 0.0
  outer loop
    vertex -292.6696914829197 -55.666751146553146 5.0
    vertex -293.3053659733112 -54.838324021806955 3.0
    vertex -293.3053659733112 -54.838324021806955 5.0
  endloop
endfacet
facet normal 1.0 0.0 0.0
  outer loop
    vertex -293.8412643581735 -52.838324021806955 3.0
    vertex -293.7049676633298 -53.873600202217034 5.0
    vertex -293.7049676633298 -53.873600202217034 3.0
  endloop
endfacet
facet normal 0.9659258262890669 0.25881904510252596 0.0
  outer loop
    vertex -293.7049676633298 -53.873600202217034 5.0
    vertex -293.8412643581735 -52.838324021806955 3.0
    vertex -293.8412643581735 -52.838324021806955 5.0
  endloop
endfacet
facet normal -1.7822219791293813e-17 1.0 -1.0469284345804705e-30
  outer loop
    vertex -289.8412643581735 -56.83832402180695 5.0
    vertex -288.80598817776337 -56.702027326963226 3.0
    vertex -289.8412643581735 -56.83832402180695 3.0
  endloop
endfacet
facet normal -0.2588190451025232 0.9659258262890676 -5.234642172902355e-31
  outer loop
    vertex -288.80598817776337 -56.702027326963226 3.0
    vertex -289.8412643581735 -56.83832402180695 5.0
    vertex -288.80598817776337 -56.702027326963226 5.0
  endloop
endfacet
facet normal -0.4999999999999982 0.8660254037844397 0.0
  outer loop
    vertex -287.8412643581735 -56.302425636944704 5.0
    vertex -287.01283723342726 -55.666751146553146 3.0
    vertex -287.8412643581735 -56.302425636944704 3.0
  endloop
endfacet
facet normal -0.7071067811865513 0.7071067811865437 0.0
  outer loop
    vertex -287.01283723342726 -55.666751146553146 3.0
    vertex -287.8412643581735 -56.302425636944704 5.0
    vertex -287.01283723342726 -55.666751146553146 5.0
  endloop
endfacet
facet normal 0.7071067811865513 0.7071067811865437 0.0
  outer loop
    vertex -292.6696914829197 -55.666751146553146 5.0
    vertex -291.8412643581735 -56.302425636944704 3.0
    vertex -292.6696914829197 -55.666751146553146 3.0
  endloop
endfacet
facet normal 0.4999999999999982 0.8660254037844397 0.0
  outer loop
    vertex -291.8412643581735 -56.302425636944704 3.0
    vertex -292.6696914829197 -55.666751146553146 5.0
    vertex -291.8412643581735 -56.302425636944704 5.0
  endloop
endfacet
facet normal -0.9659258262890669 0.25881904510252596 0.0
  outer loop
    vertex -285.9775610530172 -53.873600202217034 5.0
    vertex -286.37716274303574 -54.838324021806955 3.0
    vertex -286.37716274303574 -54.838324021806955 5.0
  endloop
endfacet
facet normal -0.8660254037844359 0.5000000000000048 0.0
  outer loop
    vertex -286.37716274303574 -54.838324021806955 3.0
    vertex -285.9775610530172 -53.873600202217034 5.0
    vertex -285.9775610530172 -53.873600202217034 3.0
  endloop
endfacet
facet normal 0.9659258262890669 -0.25881904510252596 0.0
  outer loop
    vertex -293.7049676633298 -51.803047841396875 3.0
    vertex -293.8412643581735 -52.838324021806955 5.0
    vertex -293.8412643581735 -52.838324021806955 3.0
  endloop
endfacet
facet normal 1.0 0.0 0.0
  outer loop
    vertex -293.8412643581735 -52.838324021806955 5.0
    vertex -293.7049676633298 -51.803047841396875 3.0
    vertex -293.7049676633298 -51.803047841396875 5.0
  endloop
endfacet
facet normal 0.2588190451025232 0.9659258262890676 -5.234642172902355e-31
  outer loop
    vertex -290.8765405385836 -56.702027326963226 5.0
    vertex -289.8412643581735 -56.83832402180695 3.0
    vertex -290.8765405385836 -56.702027326963226 3.0
  endloop
endfacet
facet normal -1.7822219791293813e-17 1.0 -1.0469284345804705e-30
  outer loop
    vertex -289.8412643581735 -56.83832402180695 3.0
    vertex -290.8765405385836 -56.702027326963226 5.0
    vertex -289.8412643581735 -56.83832402180695 5.0
  endloop
endfacet
facet normal 0.8660254037844359 -0.5000000000000048 0.0
  outer loop
    vertex -293.3053659733112 -50.83832402180696 3.0
    vertex -293.7049676633298 -51.803047841396875 5.0
    vertex -293.7049676633298 -51.803047841396875 3.0
  endloop
endfacet
facet normal 0.9659258262890669 -0.25881904510252596 0.0
  outer loop
    vertex -293.7049676633298 -51.803047841396875 5.0
    vertex -293.3053659733112 -50.83832402180696 3.0
    vertex -293.3053659733112 -50.83832402180696 5.0
  endloop
endfacet
facet normal 0.9659258262890669 0.25881904510252596 0.0
  outer loop
    vertex -293.7049676633298 -53.873600202217034 3.0
    vertex -293.3053659733112 -54.838324021806955 5.0
    vertex -293.3053659733112 -54.838324021806955 3.0
  endloop
endfacet
facet normal 0.8660254037844359 0.5000000000000048 0.0
  outer loop
    vertex -293.3053659733112 -54.838324021806955 5.0
    vertex -293.7049676633298 -53.873600202217034 3.0
    vertex -293.7049676633298 -53.873600202217034 5.0
  endloop
endfacet
facet normal 0.0 0.4308165162950349 0.9024395432866459
  outer loop
    vertex -284.8412643581735 -46.96079703648835 4.600606800342997
    vertex -294.8412643581735 -46.74269511509916 4.496486905919998
    vertex -294.8412643581735 -46.96079703648835 4.600606800342997
  endloop
endfacet
facet normal 0.0 0.4308165162950349 0.9024395432866459
  outer loop
    vertex -294.8412643581735 -46.74269511509916 4.496486905919998
    vertex -284.8412643581735 -46.96079703648835 4.600606800342997
    vertex -284.8412643581735 -46.74269511509916 4.496486905919998
  endloop
endfacet
facet normal 0.0 0.38295928324492107 0.9237652230824325
  outer loop
    vertex -284.8412643581735 -47.18405295602955 4.693160541046064
    vertex -294.8412643581735 -46.96079703648835 4.600606800342997
    vertex -294.8412643581735 -47.18405295602955 4.693160541046064
  endloop
endfacet
facet normal 0.0 0.38295928324492107 0.9237652230824325
  outer loop
    vertex -294.8412643581735 -46.96079703648835 4.600606800342997
    vertex -284.8412643581735 -47.18405295602955 4.693160541046064
    vertex -284.8412643581735 -46.96079703648835 4.600606800342997
  endloop
endfacet
facet normal 0.0 0.33405078890612666 0.9425550755426414
  outer loop
    vertex -284.8412643581735 -47.41185001403777 4.773894058813535
    vertex -294.8412643581735 -47.18405295602955 4.693160541046064
    vertex -294.8412643581735 -47.41185001403777 4.773894058813535
  endloop
endfacet
facet normal 0.0 0.33405078890612666 0.9425550755426414
  outer loop
    vertex -294.8412643581735 -47.18405295602955 4.693160541046064
    vertex -284.8412643581735 -47.41185001403777 4.773894058813535
    vertex -284.8412643581735 -47.18405295602955 4.693160541046064
  endloop
endfacet
facet normal 0.0 0.28422529195582913 0.9587575206550526
  outer loop
    vertex -284.8412643581735 -47.6435628849517 4.84258573211633
    vertex -294.8412643581735 -47.41185001403777 4.773894058813535
    vertex -294.8412643581735 -47.6435628849517 4.84258573211633
  endloop
endfacet
facet normal 0.0 0.28422529195582913 0.9587575206550526
  outer loop
    vertex -294.8412643581735 -47.41185001403777 4.773894058813535
    vertex -284.8412643581735 -47.6435628849517 4.84258573211633
    vertex -284.8412643581735 -47.41185001403777 4.773894058813535
  endloop
endfacet
facet normal 0.0 0.23361956833451386 0.9723280810977308
  outer loop
    vertex -284.8412643581735 -47.87855549391445 4.899046995485068
    vertex -294.8412643581735 -47.6435628849517 4.84258573211633
    vertex -294.8412643581735 -47.87855549391445 4.899046995485068
  endloop
endfacet
facet normal 0.0 0.23361956833451386 0.9723280810977308
  outer loop
    vertex -294.8412643581735 -47.6435628849517 4.84258573211633
    vertex -284.8412643581735 -47.87855549391445 4.899046995485068
    vertex -284.8412643581735 -47.6435628849517 4.84258573211633
  endloop
endfacet
facet normal 0.0 0.18237253578242754 0.9832295043336968
  outer loop
    vertex -284.8412643581735 -48.116182762862266 4.943122857141024
    vertex -294.8412643581735 -47.87855549391445 4.899046995485068
    vertex -294.8412643581735 -48.116182762862266 4.943122857141024
  endloop
endfacet
facet normal 0.0 0.18237253578242754 0.9832295043336968
  outer loop
    vertex -294.8412643581735 -47.87855549391445 4.899046995485068
    vertex -284.8412643581735 -48.116182762862266 4.943122857141024
    vertex -284.8412643581735 -47.87855549391445 4.899046995485068
  endloop
endfacet
facet normal 0.0 -1.0 0.0
  outer loop
    vertex -287.8412643581735 -57.83832402180695 5.0
    vertex -291.8412643581735 -57.83832402180695 3.524958103184872e-16
    vertex -287.8412643581735 -57.83832402180695 0.0
  endloop
endfacet
facet normal 0.0 -1.0 0.0
  outer loop
    vertex -291.8412643581735 -57.83832402180695 3.524958103184872e-16
    vertex -287.8412643581735 -57.83832402180695 5.0
    vertex -291.8412643581735 -57.83832402180695 5.0
  endloop
endfacet
facet normal 0.0 -1.0 0.0
  outer loop
    vertex -291.8412643581735 -57.83832402180695 5.0
    vertex -287.8412643581735 -57.83832402180695 5.0
    vertex -289.8412643581735 -57.83832402180695 5.0
  endloop
endfacet
facet normal 0.0 0.0 1.0
  outer loop
    vertex -293.66754864519964 -57.218384042680654 5.0
    vertex -293.8412643581735 -52.838324021806955 5.0
    vertex -293.96258470173314 -56.95964436536659 5.0
  endloop
endfacet
facet normal 0.0 0.0 1.0
  outer loop
    vertex -293.8412643581735 -52.838324021806955 5.0
    vertex -293.66754864519964 -57.218384042680654 5.0
    vertex -293.7049676633298 -53.873600202217034 5.0
  endloop
endfacet
facet normal 0.0 0.0 1.0
  outer loop
    vertex -293.7049676633298 -53.873600202217034 5.0
    vertex -293.66754864519964 -57.218384042680654 5.0
    vertex -293.3053659733112 -54.838324021806955 5.0
  endloop
endfacet
facet normal 0.0 0.0 1.0
  outer loop
    vertex -293.3053659733112 -54.838324021806955 5.0
    vertex -293.66754864519964 -57.218384042680654 5.0
    vertex -293.3412643581735 -57.43640023316026 5.0
  endloop
endfacet
facet normal 0.0 0.0 1.0
  outer loop
    vertex -293.3053659733112 -54.838324021806955 5.0
    vertex -293.3412643581735 -57.43640023316026 5.0
    vertex -292.98931465526874 -57.60996261934081 5.0
  endloop
endfacet
facet normal 0.0 0.0 1.0
  outer loop
    vertex -293.3053659733112 -54.838324021806955 5.0
    vertex -292.98931465526874 -57.60996261934081 5.0
    vertex -292.6696914829197 -55.666751146553146 5.0
  endloop
endfacet
facet normal 0.0 0.0 1.0
  outer loop
    vertex -292.6696914829197 -55.666751146553146 5.0
    vertex -292.98931465526874 -57.60996261934081 5.0
    vertex -292.61772149348104 -57.73610150067416 5.0
  endloop
endfacet
facet normal 0.0 0.0 1.0
  outer loop
    vertex -292.6696914829197 -55.666751146553146 5.0
    vertex -292.61772149348104 -57.73610150067416 5.0
    vertex -291.8412643581735 -56.302425636944704 5.0
  endloop
endfacet
facet normal 0.0 0.0 1.0
  outer loop
    vertex -291.8412643581735 -56.302425636944704 5.0
    vertex -292.61772149348104 -57.73610150067416 5.0
    vertex -292.2328429348336 -57.812658605928384 5.0
  endloop
endfacet
facet normal 0.0 0.0 1.0
  outer loop
    vertex -291.8412643581735 -56.302425636944704 5.0
    vertex -292.2328429348336 -57.812658605928384 5.0
    vertex -291.8412643581735 -57.83832402180695 5.0
  endloop
endfacet
facet normal 0.0 0.0 1.0
  outer loop
    vertex -291.8412643581735 -56.302425636944704 5.0
    vertex -291.8412643581735 -57.83832402180695 5.0
    vertex -289.8412643581735 -57.83832402180695 5.0
  endloop
endfacet
facet normal 0.0 0.0 1.0
  outer loop
    vertex -291.8412643581735 -56.302425636944704 5.0
    vertex -289.8412643581735 -57.83832402180695 5.0
    vertex -290.8765405385836 -56.702027326963226 5.0
  endloop
endfacet
facet normal 0.0 0.0 1.0
  outer loop
    vertex -290.8765405385836 -56.702027326963226 5.0
    vertex -289.8412643581735 -57.83832402180695 5.0
    vertex -289.8412643581735 -56.83832402180695 5.0
  endloop
endfacet
facet normal 0.0 0.0 1.0
  outer loop
    vertex -294.8155989422949 -55.22990259846711 5.0
    vertex -294.8412643581735 -48.83832402180696 5.0
    vertex -294.8412643581735 -54.838324021806955 5.0
  endloop
endfacet
facet normal 0.0 0.0 1.0
  outer loop
    vertex -294.8412643581735 -48.83832402180696 5.0
    vertex -294.8155989422949 -55.22990259846711 5.0
    vertex -293.7049676633298 -51.803047841396875 5.0
  endloop
endfacet
facet normal 0.0 0.0 1.0
  outer loop
    vertex -294.8412643581735 -48.83832402180696 5.0
    vertex -293.7049676633298 -51.803047841396875 5.0
    vertex -293.3053659733112 -50.83832402180696 5.0
  endloop
endfacet
facet normal 0.0 0.0 1.0
  outer loop
    vertex -294.8412643581735 -48.83832402180696 5.0
    vertex -293.3053659733112 -50.83832402180696 5.0
    vertex -292.6696914829197 -50.00989689706077 5.0
  endloop
endfacet
facet normal 0.0 0.0 1.0
  outer loop
    vertex -294.8412643581735 -48.83832402180696 5.0
    vertex -292.6696914829197 -50.00989689706077 5.0
    vertex -291.8412643581735 -49.37422240666921 5.0
  endloop
endfacet
facet normal 0.0 0.0 1.0
  outer loop
    vertex -294.8412643581735 -48.83832402180696 5.0
    vertex -291.8412643581735 -49.37422240666921 5.0
    vertex -290.8765405385836 -48.97462071665069 5.0
  endloop
endfacet
facet normal 0.0 0.0 1.0
  outer loop
    vertex -294.8412643581735 -48.83832402180696 5.0
    vertex -290.8765405385836 -48.97462071665069 5.0
    vertex -289.8412643581735 -48.83832402180696 5.0
  endloop
endfacet
facet normal 0.0 0.0 1.0
  outer loop
    vertex -293.7049676633298 -51.803047841396875 5.0
    vertex -294.8155989422949 -55.22990259846711 5.0
    vertex -294.7390418370407 -55.61478115711451 5.0
  endloop
endfacet
facet normal 0.0 0.0 1.0
  outer loop
    vertex -293.7049676633298 -51.803047841396875 5.0
    vertex -294.7390418370407 -55.61478115711451 5.0
    vertex -294.61290295570734 -55.98637431890222 5.0
  endloop
endfacet
facet normal 0.0 0.0 1.0
  outer loop
    vertex -293.7049676633298 -51.803047841396875 5.0
    vertex -294.61290295570734 -55.98637431890222 5.0
    vertex -294.4393405695268 -56.33832402180695 5.0
  endloop
endfacet
facet normal 0.0 0.0 1.0
  outer loop
    vertex -293.7049676633298 -51.803047841396875 5.0
    vertex -294.4393405695268 -56.33832402180695 5.0
    vertex -293.8412643581735 -52.838324021806955 5.0
  endloop
endfacet
facet normal 0.0 0.0 1.0
  outer loop
    vertex -293.8412643581735 -52.838324021806955 5.0
    vertex -294.4393405695268 -56.33832402180695 5.0
    vertex -294.2213243790472 -56.6646083088331 5.0
  endloop
endfacet
facet normal 0.0 0.0 1.0
  outer loop
    vertex -293.8412643581735 -52.838324021806955 5.0
    vertex -294.2213243790472 -56.6646083088331 5.0
    vertex -293.96258470173314 -56.95964436536659 5.0
  endloop
endfacet
facet normal -2.2132547689865026e-17 -2.1778282139914213e-17 -1.0
  outer loop
    vertex -284.8412643581735 -41.83832402180695 0.0
    vertex -294.8412643581735 -42.83832402180696 0.0
    vertex -294.8412643581735 -41.83832402180695 0.0
  endloop
endfacet
facet normal -2.2132547689865026e-17 -2.1778282139914213e-17 -1.0
  outer loop
    vertex -294.8412643581735 -42.83832402180696 0.0
    vertex -284.8412643581735 -41.83832402180695 0.0
    vertex -294.8412643581735 -54.838324021806955 3.524958103184872e-16
  endloop
endfacet
facet normal -2.2132547689865026e-17 -2.1778282139914213e-17 -1.0
  outer loop
    vertex -294.8412643581735 -54.838324021806955 3.524958103184872e-16
    vertex -284.8412643581735 -41.83832402180695 0.0
    vertex -294.8155989422949 -55.22990259846711 3.524958103184872e-16
  endloop
endfacet
facet normal -2.2132547689865026e-17 -2.1778282139914213e-17 -1.0
  outer loop
    vertex -294.8155989422949 -55.22990259846711 3.524958103184872e-16
    vertex -284.8412643581735 -41.83832402180695 0.0
    vertex -294.7390418370407 -55.61478115711451 3.524958103184872e-16
  endloop
endfacet
facet normal -2.2132547689865026e-17 -2.1778282139914213e-17 -1.0
  outer loop
    vertex -294.7390418370407 -55.61478115711451 3.524958103184872e-16
    vertex -284.8412643581735 -41.83832402180695 0.0
    vertex -294.61290295570734 -55.98637431890222 3.524958103184872e-16
  endloop
endfacet
facet normal -2.2132547689865026e-17 -2.1778282139914213e-17 -1.0
  outer loop
    vertex -294.61290295570734 -55.98637431890222 3.524958103184872e-16
    vertex -284.8412643581735 -41.83832402180695 0.0
    vertex -294.4393405695268 -56.33832402180695 3.524958103184872e-16
  endloop
endfacet
facet normal -2.2132547689865026e-17 -2.1778282139914213e-17 -1.0
  outer loop
    vertex -294.4393405695268 -56.33832402180695 3.524958103184872e-16
    vertex -284.8412643581735 -41.83832402180695 0.0
    vertex -294.2213243790472 -56.6646083088331 3.524958103184872e-16
  endloop
endfacet
facet normal -2.2132547689865026e-17 -2.1778282139914213e-17 -1.0
  outer loop
    vertex -294.2213243790472 -56.6646083088331 3.524958103184872e-16
    vertex -284.8412643581735 -41.83832402180695 0.0
    vertex -291.14030246385016 -52.08832402180696 0.0
  endloop
endfacet
facet normal -2.2132547689865026e-17 -2.1778282139914213e-17 -1.0
  outer loop
    vertex -294.2213243790472 -56.6646083088331 3.524958103184872e-16
    vertex -291.14030246385016 -52.08832402180696 0.0
    vertex -293.96258470173314 -56.95964436536659 3.524958103184872e-16
  endloop
endfacet
facet normal -2.2132547689865026e-17 -2.1778282139914213e-17 -1.0
  outer loop
    vertex -293.96258470173314 -56.95964436536659 3.524958103184872e-16
    vertex -291.14030246385016 -52.08832402180696 0.0
    vertex -293.66754864519964 -57.218384042680654 3.524958103184872e-16
  endloop
endfacet
facet normal -2.2132547689865026e-17 -2.1778282139914213e-17 -1.0
  outer loop
    vertex -293.66754864519964 -57.218384042680654 3.524958103184872e-16
    vertex -291.14030246385016 -52.08832402180696 0.0
    vertex -291.2901530976071 -52.45009545415318 0.0
  endloop
endfacet
facet normal -2.2132547689865026e-17 -2.1778282139914213e-17 -1.0
  outer loop
    vertex -293.66754864519964 -57.218384042680654 3.524958103184872e-16
    vertex -291.2901530976071 -52.45009545415318 0.0
    vertex -293.3412643581735 -57.43640023316026 3.524958103184872e-16
  endloop
endfacet
facet normal -2.2132547689865026e-17 -2.1778282139914213e-17 -1.0
  outer loop
    vertex -293.3412643581735 -57.43640023316026 3.524958103184872e-16
    vertex -291.2901530976071 -52.45009545415318 0.0
    vertex -292.98931465526874 -57.60996261934081 3.524958103184872e-16
  endloop
endfacet
facet normal -2.2132547689865026e-17 -2.1778282139914213e-17 -1.0
  outer loop
    vertex -292.98931465526874 -57.60996261934081 3.524958103184872e-16
    vertex -291.2901530976071 -52.45009545415318 0.0
    vertex -292.61772149348104 -57.73610150067416 3.524958103184872e-16
  endloop
endfacet
facet normal -2.2132547689865026e-17 -2.1778282139914213e-17 -1.0
  outer loop
    vertex -292.61772149348104 -57.73610150067416 3.524958103184872e-16
    vertex -291.2901530976071 -52.45009545415318 0.0
    vertex -292.2328429348336 -57.812658605928384 3.524958103184872e-16
  endloop
endfacet
facet normal -2.2132547689865026e-17 -2.1778282139914213e-17 -1.0
  outer loop
    vertex -292.2328429348336 -57.812658605928384 3.524958103184872e-16
    vertex -291.2901530976071 -52.45009545415318 0.0
    vertex -291.3412643581735 -52.838324021806955 0.0
  endloop
endfacet
facet normal -2.2132547689865026e-17 -2.1778282139914213e-17 -1.0
  outer loop
    vertex -292.2328429348336 -57.812658605928384 3.524958103184872e-16
    vertex -291.3412643581735 -52.838324021806955 0.0
    vertex -291.8412643581735 -57.83832402180695 3.524958103184872e-16
  endloop
endfacet
facet normal -2.2132547689865026e-17 -2.1778282139914213e-17 -1.0
  outer loop
    vertex -291.14030246385016 -52.08832402180696 0.0
    vertex -284.8412643581735 -41.83832402180695 0.0
    vertex -290.9019245299533 -51.77766385002713 0.0
  endloop
endfacet
facet normal -2.2132547689865026e-17 -2.1778282139914213e-17 -1.0
  outer loop
    vertex -290.9019245299533 -51.77766385002713 0.0
    vertex -284.8412643581735 -41.83832402180695 0.0
    vertex -290.5912643581735 -51.539285916130304 0.0
  endloop
endfacet
facet normal -2.2132547689865026e-17 -2.1778282139914213e-17 -1.0
  outer loop
    vertex -290.5912643581735 -51.539285916130304 0.0
    vertex -284.8412643581735 -41.83832402180695 0.0
    vertex -290.2294929258273 -51.389435282373356 0.0
  endloop
endfacet
facet normal -2.2132547689865026e-17 -2.1778282139914213e-17 -1.0
  outer loop
    vertex -290.2294929258273 -51.389435282373356 0.0
    vertex -284.8412643581735 -41.83832402180695 0.0
    vertex -289.8412643581735 -51.33832402180696 0.0
  endloop
endfacet
facet normal -2.2132547689865026e-17 -2.1778282139914213e-17 -1.0
  outer loop
    vertex -289.8412643581735 -51.33832402180696 0.0
    vertex -284.8412643581735 -41.83832402180695 0.0
    vertex -289.45303579051966 -51.389435282373356 0.0
  endloop
endfacet
facet normal -2.2132547689865026e-17 -2.1778282139914213e-17 -1.0
  outer loop
    vertex -289.45303579051966 -51.389435282373356 0.0
    vertex -284.8412643581735 -41.83832402180695 0.0
    vertex -289.0912643581735 -51.539285916130304 0.0
  endloop
endfacet
facet normal -2.2132547689865026e-17 -2.1778282139914213e-17 -1.0
  outer loop
    vertex -289.0912643581735 -51.539285916130304 0.0
    vertex -284.8412643581735 -41.83832402180695 0.0
    vertex -288.7806041863937 -51.77766385002713 0.0
  endloop
endfacet
facet normal -2.2132547689865026e-17 -2.1778282139914213e-17 -1.0
  outer loop
    vertex -288.7806041863937 -51.77766385002713 0.0
    vertex -284.8412643581735 -41.83832402180695 0.0
    vertex -288.5422262524968 -52.08832402180696 0.0
  endloop
endfacet
facet normal -2.2132547689865026e-17 -2.1778282139914213e-17 -1.0
  outer loop
    vertex -288.5422262524968 -52.08832402180696 0.0
    vertex -284.8412643581735 -41.83832402180695 0.0
    vertex -288.3923756187399 -52.45009545415318 0.0
  endloop
endfacet
facet normal -2.2132547689865026e-17 -2.1778282139914213e-17 -1.0
  outer loop
    vertex -288.3923756187399 -52.45009545415318 0.0
    vertex -284.8412643581735 -41.83832402180695 0.0
    vertex -288.34126435817353 -52.838324021806955 0.0
  endloop
endfacet
facet normal -2.2132547689865026e-17 -2.1778282139914213e-17 -1.0
  outer loop
    vertex -288.34126435817353 -52.838324021806955 0.0
    vertex -284.8412643581735 -41.83832402180695 0.0
    vertex -287.8412643581735 -57.83832402180695 0.0
  endloop
endfacet
facet normal -2.2132547689865026e-17 -2.1778282139914213e-17 -1.0
  outer loop
    vertex -287.8412643581735 -57.83832402180695 0.0
    vertex -284.8412643581735 -41.83832402180695 0.0
    vertex -287.4496857815133 -57.812658605928384 0.0
  endloop
endfacet
facet normal -2.2132547689865026e-17 -2.1778282139914213e-17 -1.0
  outer loop
    vertex -287.4496857815133 -57.812658605928384 0.0
    vertex -284.8412643581735 -41.83832402180695 0.0
    vertex -287.0648072228659 -57.73610150067416 0.0
  endloop
endfacet
facet normal -2.2132547689865026e-17 -2.1778282139914213e-17 -1.0
  outer loop
    vertex -287.0648072228659 -57.73610150067416 0.0
    vertex -284.8412643581735 -41.83832402180695 0.0
    vertex -286.6932140610782 -57.60996261934081 0.0
  endloop
endfacet
facet normal -2.2132547689865026e-17 -2.1778282139914213e-17 -1.0
  outer loop
    vertex -286.6932140610782 -57.60996261934081 0.0
    vertex -284.8412643581735 -41.83832402180695 0.0
    vertex -286.3412643581735 -57.43640023316026 0.0
  endloop
endfacet
facet normal -2.2132547689865026e-17 -2.1778282139914213e-17 -1.0
  outer loop
    vertex -286.3412643581735 -57.43640023316026 0.0
    vertex -284.8412643581735 -41.83832402180695 0.0
    vertex -286.01498007114736 -57.218384042680654 0.0
  endloop
endfacet
facet normal -2.2132547689865026e-17 -2.1778282139914213e-17 -1.0
  outer loop
    vertex -286.01498007114736 -57.218384042680654 0.0
    vertex -284.8412643581735 -41.83832402180695 0.0
    vertex -285.7199440146138 -56.95964436536659 0.0
  endloop
endfacet
facet normal -2.2132547689865026e-17 -2.1778282139914213e-17 -1.0
  outer loop
    vertex -285.7199440146138 -56.95964436536659 0.0
    vertex -284.8412643581735 -41.83832402180695 0.0
    vertex -285.4612043372998 -56.6646083088331 0.0
  endloop
endfacet
facet normal -2.2132547689865026e-17 -2.1778282139914213e-17 -1.0
  outer loop
    vertex -285.4612043372998 -56.6646083088331 0.0
    vertex -284.8412643581735 -41.83832402180695 0.0
    vertex -285.2431881468202 -56.33832402180695 0.0
  endloop
endfacet
facet normal -2.2132547689865026e-17 -2.1778282139914213e-17 -1.0
  outer loop
    vertex -285.2431881468202 -56.33832402180695 0.0
    vertex -284.8412643581735 -41.83832402180695 0.0
    vertex -285.0696257606396 -55.98637431890222 0.0
  endloop
endfacet
facet normal -2.2132547689865026e-17 -2.1778282139914213e-17 -1.0
  outer loop
    vertex -285.0696257606396 -55.98637431890222 0.0
    vertex -284.8412643581735 -41.83832402180695 0.0
    vertex -284.9434868793063 -55.61478115711451 0.0
  endloop
endfacet
facet normal -2.2132547689865026e-17 -2.1778282139914213e-17 -1.0
  outer loop
    vertex -284.9434868793063 -55.61478115711451 0.0
    vertex -284.8412643581735 -41.83832402180695 0.0
    vertex -284.8669297740521 -55.22990259846711 0.0
  endloop
endfacet
facet normal -2.2132547689865026e-17 -2.1778282139914213e-17 -1.0
  outer loop
    vertex -284.8669297740521 -55.22990259846711 0.0
    vertex -284.8412643581735 -41.83832402180695 0.0
    vertex -284.8412643581735 -54.838324021806955 0.0
  endloop
endfacet
facet normal -2.2132547689865026e-17 -2.1778282139914213e-17 -1.0
  outer loop
    vertex -284.8412643581735 -54.838324021806955 0.0
    vertex -284.8412643581735 -41.83832402180695 0.0
    vertex -284.8412643581735 -42.83832402180696 0.0
  endloop
endfacet
facet normal -2.2132547689865026e-17 -2.1778282139914213e-17 -1.0
  outer loop
    vertex -291.8412643581735 -57.83832402180695 3.524958103184872e-16
    vertex -290.9019245299533 -53.898984193586784 0.0
    vertex -287.8412643581735 -57.83832402180695 0.0
  endloop
endfacet
facet normal -2.2132547689865026e-17 -2.1778282139914213e-17 -1.0
  outer loop
    vertex -290.9019245299533 -53.898984193586784 0.0
    vertex -291.8412643581735 -57.83832402180695 3.524958103184872e-16
    vertex -291.14030246385016 -53.588324021806955 0.0
  endloop
endfacet
facet normal -2.2132547689865026e-17 -2.1778282139914213e-17 -1.0
  outer loop
    vertex -291.14030246385016 -53.588324021806955 0.0
    vertex -291.8412643581735 -57.83832402180695 3.524958103184872e-16
    vertex -291.2901530976071 -53.22655258946074 0.0
  endloop
endfacet
facet normal -2.2132547689865026e-17 -2.1778282139914213e-17 -1.0
  outer loop
    vertex -291.2901530976071 -53.22655258946074 0.0
    vertex -291.8412643581735 -57.83832402180695 3.524958103184872e-16
    vertex -291.3412643581735 -52.838324021806955 0.0
  endloop
endfacet
facet normal -2.2132547689865026e-17 -2.1778282139914213e-17 -1.0
  outer loop
    vertex -287.8412643581735 -57.83832402180695 0.0
    vertex -290.9019245299533 -53.898984193586784 0.0
    vertex -290.5912643581735 -54.137362127483605 0.0
  endloop
endfacet
facet normal -2.2132547689865026e-17 -2.1778282139914213e-17 -1.0
  outer loop
    vertex -287.8412643581735 -57.83832402180695 0.0
    vertex -290.5912643581735 -54.137362127483605 0.0
    vertex -290.2294929258273 -54.28721276124056 0.0
  endloop
endfacet
facet normal -2.2132547689865026e-17 -2.1778282139914213e-17 -1.0
  outer loop
    vertex -287.8412643581735 -57.83832402180695 0.0
    vertex -290.2294929258273 -54.28721276124056 0.0
    vertex -289.8412643581735 -54.338324021806955 0.0
  endloop
endfacet
facet normal -2.2132547689865026e-17 -2.1778282139914213e-17 -1.0
  outer loop
    vertex -287.8412643581735 -57.83832402180695 0.0
    vertex -289.8412643581735 -54.338324021806955 0.0
    vertex -289.45303579051966 -54.28721276124056 0.0
  endloop
endfacet
facet normal -2.2132547689865026e-17 -2.1778282139914213e-17 -1.0
  outer loop
    vertex -287.8412643581735 -57.83832402180695 0.0
    vertex -289.45303579051966 -54.28721276124056 0.0
    vertex -289.0912643581735 -54.137362127483605 0.0
  endloop
endfacet
facet normal -2.2132547689865026e-17 -2.1778282139914213e-17 -1.0
  outer loop
    vertex -287.8412643581735 -57.83832402180695 0.0
    vertex -289.0912643581735 -54.137362127483605 0.0
    vertex -288.7806041863937 -53.898984193586784 0.0
  endloop
endfacet
facet normal -2.2132547689865026e-17 -2.1778282139914213e-17 -1.0
  outer loop
    vertex -287.8412643581735 -57.83832402180695 0.0
    vertex -288.7806041863937 -53.898984193586784 0.0
    vertex -288.5422262524968 -53.588324021806955 0.0
  endloop
endfacet
facet normal -2.2132547689865026e-17 -2.1778282139914213e-17 -1.0
  outer loop
    vertex -287.8412643581735 -57.83832402180695 0.0
    vertex -288.5422262524968 -53.588324021806955 0.0
    vertex -288.3923756187399 -53.22655258946074 0.0
  endloop
endfacet
facet normal -2.2132547689865026e-17 -2.1778282139914213e-17 -1.0
  outer loop
    vertex -287.8412643581735 -57.83832402180695 0.0
    vertex -288.3923756187399 -53.22655258946074 0.0
    vertex -288.34126435817353 -52.838324021806955 0.0
  endloop
endfacet
facet normal 0.002975971787587191 0.5846244681488542 0.811298573173643
  outer loop
    vertex -284.8412643581735 -41.83832402180695 0.9999999999999999
    vertex -289.0932067427359 -46.52290327406771 4.391320292441987
    vertex -284.8412643581735 -46.530345903309836 4.381086677234063
  endloop
endfacet
facet normal 0.00040662047434277573 0.585605940361705 0.8105957792098805
  outer loop
    vertex -289.0932067427359 -46.52290327406771 4.391320292441987
    vertex -294.8412643581735 -46.324332320808715 4.254722899380717
    vertex -294.8412643581735 -46.530345903309836 4.381086677234063
  endloop
endfacet
facet normal 0.00040662047434277573 0.585605940361705 0.8105957792098805
  outer loop
    vertex -294.8412643581735 -46.324332320808715 4.254722899380717
    vertex -289.0932067427359 -46.52290327406771 4.391320292441987
    vertex -294.8412643581735 -41.83832402180695 0.9999999999999999
  endloop
endfacet
facet normal 0.00040662047434277573 0.585605940361705 0.8105957792098805
  outer loop
    vertex -294.8412643581735 -41.83832402180695 0.9999999999999999
    vertex -289.0932067427359 -46.52290327406771 4.391320292441987
    vertex -284.8412643581735 -41.83832402180695 0.9999999999999999
  endloop
endfacet
facet normal 0.00040662047434277573 0.585605940361705 0.8105957792098805
  outer loop
    vertex -284.8412643581735 -41.83832402180695 0.9999999999999999
    vertex -289.0932067427359 -46.52290327406771 4.391320292441987
    vertex -284.8412643581735 -46.530345903309836 4.381086677234063
  endloop
endfacet
facet normal 0.00011130922152858024 0.00044185274639508816 0.9999998961881985
  outer loop
    vertex -287.8412643581735 -57.83832402180695 5.0
    vertex -289.8412643581735 -56.83832402180695 5.0
    vertex -289.8412643581735 -57.83832402180695 5.0
  endloop
endfacet
facet normal 0.00011130922152858024 0.00044185274639508816 0.9999998961881985
  outer loop
    vertex -289.8412643581735 -56.83832402180695 5.0
    vertex -287.8412643581735 -57.83832402180695 5.0
    vertex -288.80598817776337 -56.702027326963226 5.0
  endloop
endfacet
facet normal 0.00011130922152858024 0.00044185274639508816 0.9999998961881985
  outer loop
    vertex -288.80598817776337 -56.702027326963226 5.0
    vertex -287.8412643581735 -57.83832402180695 5.0
    vertex -287.8412643581735 -56.302425636944704 5.0
  endloop
endfacet
facet normal 0.00011130922152858024 0.00044185274639508816 0.9999998961881985
  outer loop
    vertex -287.8412643581735 -56.302425636944704 5.0
    vertex -287.8412643581735 -57.83832402180695 5.0
    vertex -287.4496857815133 -57.812658605928384 5.0
  endloop
endfacet
facet normal 0.00011130922152858024 0.00044185274639508816 0.9999998961881985
  outer loop
    vertex -287.8412643581735 -56.302425636944704 5.0
    vertex -287.4496857815133 -57.812658605928384 5.0
    vertex -287.01283723342726 -55.666751146553146 5.0
  endloop
endfacet
facet normal 0.00011130922152858024 0.00044185274639508816 0.9999998961881985
  outer loop
    vertex -287.01283723342726 -55.666751146553146 5.0
    vertex -287.4496857815133 -57.812658605928384 5.0
    vertex -287.0648072228659 -57.73610150067416 5.0
  endloop
endfacet
facet normal 0.00011130922152858024 0.00044185274639508816 0.9999998961881985
  outer loop
    vertex -287.01283723342726 -55.666751146553146 5.0
    vertex -287.0648072228659 -57.73610150067416 5.0
    vertex -286.6932140610782 -57.60996261934081 5.0
  endloop
endfacet
facet normal 0.00011130922152858024 0.00044185274639508816 0.9999998961881985
  outer loop
    vertex -287.01283723342726 -55.666751146553146 5.0
    vertex -286.6932140610782 -57.60996261934081 5.0
    vertex -286.37716274303574 -54.838324021806955 5.0
  endloop
endfacet
facet normal 0.00011130922152858024 0.00044185274639508816 0.9999998961881985
  outer loop
    vertex -286.37716274303574 -54.838324021806955 5.0
    vertex -286.6932140610782 -57.60996261934081 5.0
    vertex -286.3412643581735 -57.43640023316026 5.0
  endloop
endfacet
facet normal 0.00011130922152858024 0.00044185274639508816 0.9999998961881985
  outer loop
    vertex -286.37716274303574 -54.838324021806955 5.0
    vertex -286.3412643581735 -57.43640023316026 5.0
    vertex -285.9775610530172 -53.873600202217034 5.0
  endloop
endfacet
facet normal 0.00011130922152858024 0.00044185274639508816 0.9999998961881985
  outer loop
    vertex -285.9775610530172 -53.873600202217034 5.0
    vertex -286.3412643581735 -57.43640023316026 5.0
    vertex -286.01498007114736 -57.218384042680654 5.0
  endloop
endfacet
facet normal 0.00011130922152858024 0.00044185274639508816 0.9999998961881985
  outer loop
    vertex -285.9775610530172 -53.873600202217034 5.0
    vertex -286.01498007114736 -57.218384042680654 5.0
    vertex -285.7199440146138 -56.95964436536659 5.0
  endloop
endfacet
facet normal 0.00011130922152858024 0.00044185274639508816 0.9999998961881985
  outer loop
    vertex -285.9775610530172 -53.873600202217034 5.0
    vertex -285.7199440146138 -56.95964436536659 5.0
    vertex -285.8412643581735 -52.838324021806955 5.0
  endloop
endfacet
facet normal 0.00011130922152858024 0.00044185274639508816 0.9999998961881985
  outer loop
    vertex -288.80598817776337 -48.97462071665069 5.0
    vertex -289.8412523492219 -48.35579238132793 4.990509636869916
    vertex -289.8412643581735 -48.83832402180696 5.0
  endloop
endfacet
facet normal 0.00011130922152858024 0.00044185274639508816 0.9999998961881985
  outer loop
    vertex -289.8412523492219 -48.35579238132793 4.990509636869916
    vertex -288.80598817776337 -48.97462071665069 5.0
    vertex -284.8412643581735 -48.35579238132793 4.987346162231979
  endloop
endfacet
facet normal 0.00011130922152858024 0.00044185274639508816 0.9999998961881985
  outer loop
    vertex -284.8412643581735 -48.35579238132793 4.987346162231979
    vertex -288.80598817776337 -48.97462071665069 5.0
    vertex -287.8412643581735 -49.374222406669205 5.0
  endloop
endfacet
facet normal 0.00011130922152858024 0.00044185274639508816 0.9999998961881985
  outer loop
    vertex -284.8412643581735 -48.35579238132793 4.987346162231979
    vertex -287.8412643581735 -49.374222406669205 5.0
    vertex -287.01283723342726 -50.00989689706077 5.0
  endloop
endfacet
facet normal 0.00011130922152858024 0.00044185274639508816 0.9999998961881985
  outer loop
    vertex -284.8412643581735 -48.35579238132793 4.987346162231979
    vertex -287.01283723342726 -50.00989689706077 5.0
    vertex -286.37716274303574 -50.83832402180696 5.0
  endloop
endfacet
facet normal 0.00011130922152858024 0.00044185274639508816 0.9999998961881985
  outer loop
    vertex -284.8412643581735 -48.35579238132793 4.987346162231979
    vertex -286.37716274303574 -50.83832402180696 5.0
    vertex -285.97756105301727 -51.803047841396875 5.0
  endloop
endfacet
facet normal 0.00011130922152858024 0.00044185274639508816 0.9999998961881985
  outer loop
    vertex -284.8412643581735 -48.35579238132793 4.987346162231979
    vertex -285.97756105301727 -51.803047841396875 5.0
    vertex -285.8412643581735 -52.838324021806955 5.0
  endloop
endfacet
facet normal 0.00011130922152858024 0.00044185274639508816 0.9999998961881985
  outer loop
    vertex -284.8412643581735 -48.35579238132793 4.987346162231979
    vertex -285.8412643581735 -52.838324021806955 5.0
    vertex -285.7199440146138 -56.95964436536659 5.0
  endloop
endfacet
facet normal 0.00011130922152858024 0.00044185274639508816 0.9999998961881985
  outer loop
    vertex -284.8412643581735 -48.35579238132793 4.987346162231979
    vertex -285.7199440146138 -56.95964436536659 5.0
    vertex -285.4612043372998 -56.6646083088331 5.0
  endloop
endfacet
facet normal 0.00011130922152858024 0.00044185274639508816 0.9999998961881985
  outer loop
    vertex -284.8412643581735 -48.35579238132793 4.987346162231979
    vertex -285.4612043372998 -56.6646083088331 5.0
    vertex -285.2431881468202 -56.33832402180695 5.0
  endloop
endfacet
facet normal 0.00011130922152858024 0.00044185274639508816 0.9999998961881985
  outer loop
    vertex -284.8412643581735 -48.35579238132793 4.987346162231979
    vertex -285.2431881468202 -56.33832402180695 5.0
    vertex -285.0696257606396 -55.98637431890222 5.0
  endloop
endfacet
facet normal 0.00011130922152858024 0.00044185274639508816 0.9999998961881985
  outer loop
    vertex -284.8412643581735 -48.35579238132793 4.987346162231979
    vertex -285.0696257606396 -55.98637431890222 5.0
    vertex -284.9434868793063 -55.61478115711451 5.0
  endloop
endfacet
facet normal 0.00011130922152858024 0.00044185274639508816 0.9999998961881985
  outer loop
    vertex -284.8412643581735 -48.35579238132793 4.987346162231979
    vertex -284.9434868793063 -55.61478115711451 5.0
    vertex -284.8669297740521 -55.22990259846711 5.0
  endloop
endfacet
facet normal 0.00011130922152858024 0.00044185274639508816 0.9999998961881985
  outer loop
    vertex -284.8412643581735 -48.35579238132793 4.987346162231979
    vertex -284.8669297740521 -55.22990259846711 5.0
    vertex -284.8412643581735 -54.838324021806955 5.0
  endloop
endfacet
facet normal -0.0011586759914996888 0.03602834902111952 0.9993500965811527
  outer loop
    vertex -289.8412643581735 -48.83832402180696 5.0
    vertex -294.8412643581735 -48.596726597097785 4.993668736128884
    vertex -294.8412643581735 -48.83832402180696 5.0
  endloop
endfacet
facet normal -0.0011586759914996888 0.03602834902111952 0.9993500965811527
  outer loop
    vertex -294.8412643581735 -48.596726597097785 4.993668736128884
    vertex -289.8412643581735 -48.83832402180696 5.0
    vertex -294.8412643581735 -48.35579238132793 4.974692324463957
  endloop
endfacet
facet normal -0.0011586759914996888 0.03602834902111952 0.9993500965811527
  outer loop
    vertex -294.8412643581735 -48.35579238132793 4.974692324463957
    vertex -289.8412643581735 -48.83832402180696 5.0
    vertex -289.8412523492219 -48.35579238132793 4.990509636869916
  endloop
endfacet
facet normal -0.0006236028041005777 0.16889949962478099 0.9856330808906738
  outer loop
    vertex -289.8412523492219 -48.35579238132793 4.990509636869916
    vertex -294.8412643581735 -48.116182762862266 4.943122857141024
    vertex -294.8412643581735 -48.35579238132793 4.974692324463957
  endloop
endfacet
facet normal -0.0006236028041005777 0.16889949962478099 0.9856330808906738
  outer loop
    vertex -294.8412643581735 -48.116182762862266 4.943122857141024
    vertex -289.8412523492219 -48.35579238132793 4.990509636869916
    vertex -284.8412643581735 -48.116182762862266 4.943122857141024
  endloop
endfacet
facet normal -0.0006236028041005777 0.16889949962478099 0.9856330808906738
  outer loop
    vertex -284.8412643581735 -48.116182762862266 4.943122857141024
    vertex -289.8412523492219 -48.35579238132793 4.990509636869916
    vertex -284.8412643581735 -48.35579238132793 4.987346162231979
  endloop
endfacet
facet normal -6.145708433930544e-05 0.46143133375142553 0.8871759241860699
  outer loop
    vertex -284.8412643581735 -46.74269511509916 4.496486905919998
    vertex -294.8412643581735 -46.530345903309836 4.381086677234063
    vertex -294.8412643581735 -46.74269511509916 4.496486905919998
  endloop
endfacet
facet normal -6.145708433930544e-05 0.46143133375142553 0.8871759241860699
  outer loop
    vertex -294.8412643581735 -46.530345903309836 4.381086677234063
    vertex -284.8412643581735 -46.74269511509916 4.496486905919998
    vertex -289.0932067427359 -46.52290327406771 4.391320292441987
  endloop
endfacet
facet normal -6.145708433930544e-05 0.46143133375142553 0.8871759241860699
  outer loop
    vertex -289.0932067427359 -46.52290327406771 4.391320292441987
    vertex -284.8412643581735 -46.74269511509916 4.496486905919998
    vertex -284.8412643581735 -46.530345903309836 4.381086677234063
  endloop
endfacet
facet normal -1.0 0.0 0.0
  outer loop
    vertex -294.8412643581735 -48.83832402180696 5.0
    vertex -294.8412643581735 -54.838324021806955 3.524958103184872e-16
    vertex -294.8412643581735 -54.838324021806955 5.0
  endloop
endfacet
facet normal -1.0 0.0 0.0
  outer loop
    vertex -294.8412643581735 -54.838324021806955 3.524958103184872e-16
    vertex -294.8412643581735 -48.83832402180696 5.0
    vertex -294.8412643581735 -42.83832402180696 0.0
  endloop
endfacet
facet normal -1.0 0.0 0.0
  outer loop
    vertex -294.8412643581735 -42.83832402180696 0.0
    vertex -294.8412643581735 -48.83832402180696 5.0
    vertex -294.8412643581735 -48.596726597097785 4.993668736128884
  endloop
endfacet
facet normal -1.0 0.0 0.0
  outer loop
    vertex -294.8412643581735 -42.83832402180696 0.0
    vertex -294.8412643581735 -48.596726597097785 4.993668736128884
    vertex -294.8412643581735 -48.35579238132793 4.974692324463957
  endloop
endfacet
facet normal -1.0 0.0 0.0
  outer loop
    vertex -294.8412643581735 -42.83832402180696 0.0
    vertex -294.8412643581735 -48.35579238132793 4.974692324463957
    vertex -294.8412643581735 -48.116182762862266 4.943122857141024
  endloop
endfacet
facet normal -1.0 0.0 0.0
  outer loop
    vertex -294.8412643581735 -42.83832402180696 0.0
    vertex -294.8412643581735 -48.116182762862266 4.943122857141024
    vertex -294.8412643581735 -47.87855549391445 4.899046995485068
  endloop
endfacet
facet normal -1.0 0.0 0.0
  outer loop
    vertex -294.8412643581735 -42.83832402180696 0.0
    vertex -294.8412643581735 -47.87855549391445 4.899046995485068
    vertex -294.8412643581735 -47.6435628849517 4.84258573211633
  endloop
endfacet
facet normal -1.0 0.0 0.0
  outer loop
    vertex -294.8412643581735 -42.83832402180696 0.0
    vertex -294.8412643581735 -47.6435628849517 4.84258573211633
    vertex -294.8412643581735 -47.41185001403777 4.773894058813535
  endloop
endfacet
facet normal -1.0 0.0 0.0
  outer loop
    vertex -294.8412643581735 -42.83832402180696 0.0
    vertex -294.8412643581735 -47.41185001403777 4.773894058813535
    vertex -294.8412643581735 -47.18405295602955 4.693160541046064
  endloop
endfacet
facet normal -1.0 0.0 0.0
  outer loop
    vertex -294.8412643581735 -42.83832402180696 0.0
    vertex -294.8412643581735 -47.18405295602955 4.693160541046064
    vertex -294.8412643581735 -46.96079703648835 4.600606800342997
  endloop
endfacet
facet normal -1.0 0.0 0.0
  outer loop
    vertex -294.8412643581735 -42.83832402180696 0.0
    vertex -294.8412643581735 -46.96079703648835 4.600606800342997
    vertex -294.8412643581735 -46.74269511509916 4.496486905919998
  endloop
endfacet
facet normal -1.0 0.0 0.0
  outer loop
    vertex -294.8412643581735 -42.83832402180696 0.0
    vertex -294.8412643581735 -46.74269511509916 4.496486905919998
    vertex -294.8412643581735 -46.530345903309836 4.381086677234063
  endloop
endfacet
facet normal -1.0 0.0 0.0
  outer loop
    vertex -294.8412643581735 -42.83832402180696 0.0
    vertex -294.8412643581735 -46.530345903309836 4.381086677234063
    vertex -294.8412643581735 -46.324332320808715 4.254722899380717
  endloop
endfacet
facet normal -1.0 0.0 0.0
  outer loop
    vertex -294.8412643581735 -42.83832402180696 0.0
    vertex -294.8412643581735 -46.324332320808715 4.254722899380717
    vertex -294.8412643581735 -41.83832402180695 0.9999999999999999
  endloop
endfacet
facet normal -1.0 0.0 0.0
  outer loop
    vertex -294.8412643581735 -42.83832402180696 0.0
    vertex -294.8412643581735 -41.83832402180695 0.9999999999999999
    vertex -294.8412643581735 -41.83832402180695 0.0
  endloop
endfacet
facet normal 0.0 1.0 0.0
  outer loop
    vertex -294.8412643581735 -41.83832402180695 0.9999999999999999
    vertex -284.8412643581735 -41.83832402180695 0.0
    vertex -294.8412643581735 -41.83832402180695 0.0
  endloop
endfacet
facet normal 0.0 1.0 0.0
  outer loop
    vertex -284.8412643581735 -41.83832402180695 0.0
    vertex -294.8412643581735 -41.83832402180695 0.9999999999999999
    vertex -284.8412643581735 -41.83832402180695 0.9999999999999999
  endloop
endfacet
endsolid GlassHolderNew
